<?xml version="1.0" encoding="utf-8"?>
<!-- Generator: Adobe Illustrator 22.0.0, SVG Export Plug-In . SVG Version: 6.00 Build 0)  -->
<svg version="1.1" id="Слой_1" xmlns="http://www.w3.org/2000/svg" xmlns:xlink="http://www.w3.org/1999/xlink" x="0px" y="0px"
	 viewBox="0 0 3201 3201" style="enable-background:new 0 0 3201 3201;" xml:space="preserve">
<style type="text/css">
	.st0{fill:#C3E678;}
	.st1{fill:#A5D76E;}
	.st2{fill:#FFFFFF;}
	.st3{fill:#FFFFFE;}
</style>
<g>
	<path class="st0" d="M3204,1560c0,28,0,56,0,84c-1,2.1-1.5,4.4-1.5,6.8c-0.1,26-1.9,51.9-3.8,77.8c-2.2,29.9-5.4,59.7-9.3,89.4
		c-8,60.5-19.8,120.2-34.9,179.4c-13.3,52.3-29.4,103.8-48,154.5c-17.9,48.8-38,96.8-60.6,143.6c-25.7,53.1-54.1,104.8-85.6,154.7
		c-28.8,45.7-59.7,89.9-92.2,133c-1.6,2.1-3.2,4.3-5.8,5.3c-0.7-2.5-2-4.3-5-3.6c-2.6,0.6-5.1,1.6-7.6,2.3
		c-26.4,8.1-52.6,16.7-79.2,24.1c-27.5,7.7-55.3,14.4-83.2,20.6c-24.4,5.4-48.9,9.9-73.4,14.1c-19.3,3.3-38.7,6.4-58.1,8.9
		c-22.1,2.9-44.2,4.6-66.3,7.4c-10.3,1.3-20.6,1-30.8,2.2c-21.8,2.4-43.8,3-65.6,3.4c-52.2,0.9-104.4,0.6-156.6-3.3
		c-19.5-1.5-39.1-2.8-58.5-5c-26.4-3-52.7-6.4-78.9-10.8c-36.1-6.1-72.1-12.4-107.7-20.7c-30.8-7.2-61.4-14.9-91.7-24
		c-15.3-4.6-30.6-9-45.7-14.1c-18.6-6.3-37.1-12.6-55.5-19.5c-18.4-6.8-36.7-13.8-54.8-21.2c-21.5-8.8-42.4-19-63.8-28.3
		c-25.9-11.3-51.1-24-76-37.3c-24.3-13-48.5-26.4-72.1-40.7c-35.8-21.8-70.9-44.7-105.1-68.9c-10-7.1-19-15.7-30.8-20.1
		c2.2-2.4,4.3-5,6.6-7.3c385.6-385.6,771.1-771.2,1156.7-1156.7c2.8-2.8,5.7-5.6,8.5-8.5c19.8-21.6,30.3-47.2,29.9-76.3
		c-0.5-34.4-13.7-63.7-41-85.3c-33.2-26.3-70.4-31.6-110.2-17.4c-16.3,5.8-29.5,16.3-41.7,28.5
		c-373.2,373.4-746.6,746.7-1119.9,1120c-13,13-10.8,12.6-23.6-0.2c-101.4-101.3-202.7-202.6-304-304.1
		c-6.1-6.1-13.3-11.1-18.2-18.3c2.5-3.9-0.1-7-1.8-10.2c-8.6-16.9-17.7-33.5-25.9-50.6c-9.6-20.1-18.7-40.4-27.7-60.8
		c-8.5-19.5-17.6-38.8-24.6-58.9c-11.3-32.3-23.8-64.1-33.8-96.8c-10.1-33.1-19.7-66.3-28.1-99.8c-6.9-27.7-13.1-55.6-18.1-83.8
		c-4.1-23.6-9.4-47-12.2-70.8c-2.5-21.1-5.6-42.1-7.3-63.4c-1.9-24.5-5.3-48.9-5.3-73.5c0-2.3,0.2-4.7-0.2-7
		c-3.4-21.1-1.8-42.5-3.3-63.7c-1.6-22.2,0.3-44.5,1.1-66.8c0.8-21.3,2.5-42.5,3-63.8c0.2-10.2,0.9-20.6,2.1-30.8
		c1.9-15.8,3.5-31.7,5.4-47.5c2.2-17.8,4.2-35.6,7-53.3c2.6-17.1,5.7-34.1,9.1-51c4.9-24.4,9.9-48.9,15.6-73.1
		c4.2-18.1,9.1-36.1,13.8-54.1c4.9-18.3,10.4-36.4,15.9-54.5c8.2-27,17.7-53.6,27.6-80.1c11.8-31.5,24.2-62.7,38.2-93.2
		c12.1-26.3,24.7-52.3,37.9-78.1c14.7-28.8,30.4-56.9,46.6-84.8c17.2-29.6,36-58.3,55.5-86.5c15.8-23,32.1-45.8,48.9-68
		c2.1-2.7,7.1-5.1,4.5-8.9c-2.5-3.7-6.9-0.3-10,0.9c-24.9,9.4-50,18.5-74.6,28.6c-43.4,17.8-86,37.4-127.7,59.2
		c-9.4,4.9-18.3,10.9-28.9,13.2c1.9-3,5.1-4.1,8-5.7c37.6-20.1,75.9-38.7,114.9-55.8c69-30.3,139.9-55.1,212.4-75.5
		c35.6-10,71.5-18.3,107.7-25.7c36.5-7.5,73.2-13.7,110.2-18.4c35-4.4,70-8.1,105.3-10.1c2.4-0.1,4.7-0.3,6.1-2.6
		c56.7,0,113.3,0,170,0c10,3.2,20.4,2.5,30.6,3.1c45.2,2.8,90.2,7.8,135,14.4c44.8,6.6,89.2,15.3,133.3,25.7
		c51.6,12.2,102.3,27.1,152.4,44.5c60.5,21,119.5,45.5,177,73.6c58.7,28.7,115.4,61.1,170.2,96.7c78.4,50.9,151.8,108.3,220.1,172.2
		c42.6,39.8,83,81.8,121.1,126c46.6,54.1,89.5,111,128.5,170.7c37.4,57.2,70.9,116.7,100.7,178.2c31.4,64.9,58.2,131.6,80.6,200
		c19.1,58.3,34.6,117.5,46.7,177.7c8.5,42.4,15.4,85.1,20.4,128.1c4.7,40.7,8.3,81.5,9.7,122.4C3202.5,1543.5,3201,1551.9,3204,1560
		z"/>
	<path class="st1" d="M1395.6,2353.8c11.8,4.4,20.8,13,30.8,20.1c34.2,24.3,69.3,47.1,105.1,68.9c23.6,14.3,47.8,27.7,72.1,40.7
		c24.9,13.3,50.1,26.1,76,37.3c21.3,9.3,42.2,19.5,63.8,28.3c18.1,7.4,36.5,14.4,54.8,21.2c18.4,6.8,36.9,13.2,55.5,19.5
		c15.1,5.1,30.4,9.5,45.7,14.1c30.3,9.1,60.9,16.8,91.7,24c35.6,8.3,71.6,14.6,107.7,20.7c26.2,4.4,52.6,7.8,78.9,10.8
		c19.4,2.2,39,3.5,58.5,5c52.2,4,104.4,4.3,156.6,3.3c21.9-0.4,43.8-1,65.6-3.4c10.2-1.1,20.5-0.9,30.8-2.2
		c22.1-2.8,44.2-4.4,66.3-7.4c19.4-2.6,38.8-5.7,58.1-8.9c24.6-4.1,49.1-8.7,73.4-14.1c27.9-6.2,55.7-12.9,83.2-20.6
		c26.6-7.4,52.8-16,79.2-24.1c2.5-0.8,5.1-1.7,7.6-2.3c2.9-0.7,4.2,1.1,5,3.6c-0.2,0.6-0.5,1.1-1,1.5c-3.3,0.8-5,2.9-5.1,6.2
		c-0.9,1.3-1.8,2.5-2.8,3.8c-4.2,1.3-6.9,3.9-7.1,8.5c-0.3,0.6-0.7,1.1-1.2,1.5c-3.9,1.5-6.6,4-6.8,8.4c-0.9,1.2-1.8,2.4-2.8,3.6
		c-4.3,1.2-6.9,3.8-7.2,8.3c-1,1.2-2,2.4-3,3.6c-4.7,2-8.3,4.9-9,10.4c-1.6,1.9-3.2,3.8-4.8,5.7c-4.3,1.2-7,3.8-7.2,8.5
		c-1.7,1.8-3.3,3.7-5,5.5c-6.1,3.2-11.3,7.2-13.1,14.4c-1.7,3.1-4.2,5.5-6.9,7.6c-6.8,3.8-12.6,8.5-15.1,16.3
		c-5.4,5.8-10.8,11.7-16.4,17.4c-14.9,15.2-29.7,30.4-45.7,44.5c-7.7,2.7-12.6,8.3-16.2,15.3c-2.3,2.6-4.7,5.1-7.8,6.8
		c-6.2,1.4-9.8,5.7-12.2,11.3c-2.4,2.5-4.5,5.2-7.7,6.8c-5.4,0.7-8.3,4.3-10.3,8.9c-1.7,2-3.4,3.9-5.8,5.1c-4.4,0.5-6.9,3.2-8.3,7.2
		c-0.8,1.5-2.1,2.4-3.7,2.8c-2.2,0.2-3.6,1.3-4.2,3.5c-2,2.8-4.4,5.2-7.7,6.5c-3.3,0.1-5.4,1.8-6.2,5c-1.7,2-3.5,3.8-5.9,4.9
		c-2.2,0.2-3.6,1.3-4.1,3.4c-1.2,0.9-2.5,1.8-3.7,2.7c-4.4,0.2-7,2.8-8.4,6.8c-0.5,0.4-1.1,0.8-1.6,1.2c-3.3,0-5.5,1.7-6.4,4.9
		c-0.5,0.4-1.1,0.8-1.6,1.2c-3.5,0-5.6,1.8-6.4,5.2c-0.4,0.5-0.8,0.8-1.4,0.9c-3.6-0.2-5.7,1.7-6.7,5c-0.8,1.4-2,2.4-3.6,2.8
		c-2.1,0.1-3.6,1-4.2,3.1c-0.4,0.5-0.9,0.8-1.5,1c-3.6-0.1-5.7,1.6-6.5,5.1c-0.4,0.5-0.8,0.8-1.4,0.9c-3.5-0.2-5.7,1.5-6.6,4.8
		c-0.4,0.5-0.9,0.9-1.6,1.1c-3.3-0.1-5.5,1.5-6.5,4.6c-0.6,0.4-1.1,0.8-1.7,1.3c-4.6,0.8-8.2,2.9-10.2,7.3c-1.3,0.9-2.5,1.8-3.8,2.7
		c-2.1,0-3.6,0.9-4.3,3c-2.2,2.2-4.5,4.2-7.6,5.1c-5.5,0.9-9.9,3.5-12.5,8.6c-0.6,0.4-1.2,0.8-1.8,1.3c-6,1.2-11,3.8-14.1,9.3
		c-2.3,2-4.6,4-7.6,4.9c-2.2,0-3.7,0.8-4.4,3c-0.4,0.5-1,0.8-1.7,1c-6.2,0.8-11.1,3.7-14.3,9.1c-0.5,0.5-1,0.7-1.7,0.8
		c-2.1,0-3.6,0.8-4.3,2.8c-0.6,0.4-1.2,0.8-1.8,1.2c-2,0.1-3.4,0.9-4.2,2.8c-1.9,1.1-3.8,2.2-5.6,3.3c-2,0-3.6,0.8-4.4,2.7
		c-1.5,1.7-3.4,2.7-5.6,3.3c-2.1-0.1-3.6,0.7-4.4,2.7c-1.9,1.1-3.8,2.2-5.7,3.2c-2,0-3.5,0.8-4.3,2.7c-1.9,1.1-3.9,2.2-5.8,3.2
		c-10.2,2.3-18.5,8-26.2,14.9c-1.6,1.7-3.6,2.6-5.8,3.1c-6.8,0.5-11.9,3.8-16.2,8.9c-1.1,0.5-2.1,1-3.2,1.5
		c-4.7-0.1-8.6,1.5-10.8,5.9c-1.2,0.6-2.4,1.2-3.6,1.9c-3.7-0.4-6.9,0.4-8.4,4.3c-1.2,0.6-2.4,1.2-3.6,1.7c-3.7-0.4-6.9,0.4-8.4,4.3
		c-1.2,0.6-2.4,1.2-3.6,1.7c-3.7-0.4-6.9,0.4-8.4,4.3c-1.2,0.6-2.4,1.2-3.6,1.7c-7.2,0.8-13.6,3.1-18.4,9c-1.1,0.4-2.2,0.9-3.2,1.3
		c-5.2,0.1-9.5,2-12.8,6.1c-1.2,0.5-2.5,1.1-3.7,1.6c-2.6-0.2-5-0.1-6.3,2.8c-1.1,0.5-2.2,0.9-3.4,1.4c-2.4-0.3-4.6,0.4-6.8,1.4
		c-19.7,8.6-39.3,17.5-59.7,24.5c-2,0.7-3.4,2-4.3,3.9c-1.9,0.7-3.8,1.3-5.7,2c-1.6,0.1-3.4-0.1-4.8,0.4c-11.4,4-22.4,9-34.1,12.1
		c-1.6,0.4-2.6,1.9-3.4,3.4c-1.4,0.4-2.9,0.7-4.3,1.1c-5.3-0.5-10,1-13.6,5c-1.4,0.4-2.9,0.7-4.3,1.1c-5.4-0.8-10,0.8-13.7,4.9
		c-1.5,0.4-2.9,0.7-4.4,1.1c-10.3-0.1-19,5.9-28.9,7.5c-1.9,0.3-3.5,1.6-4.7,3.3c-1.1,0.1-2.2,0.2-3.3,0.4
		c-6.6,0.9-13.3,1.2-18.7,5.9c-1.5,0.3-2.9,0.6-4.4,0.9c-5.8-0.4-11.4,0.3-15.6,4.9c-2.1,0.4-4.2,0.7-6.4,1.1
		c-6.5-0.5-12.4,1-17.6,4.9c-1.1,0.1-2.2,0.2-3.3,0.2c-7.4,0.1-14.5,1.2-20.7,5.7c-2.1,0.3-4.3,0.7-6.4,1c-7-0.2-14-0.5-19.6,4.9
		c-2.2,0.3-4.3,0.6-6.5,0.8c-8.2-0.1-16.2,1-23.5,5.3c-2.2,0.2-4.4,0.5-6.5,0.7c-8.8,0.2-17.6,0.5-25.5,5.3
		c-2.2,0.2-4.4,0.4-6.6,0.7c-8.9-0.4-17.6,1.1-26.3,2.8c-2,0.4-3.9,0.9-5.1,2.7c-2.2,0.2-4.4,0.4-6.6,0.5c-10.8,0-21.6,0.7-32.2,3.3
		c-1.2,0.3-2.1,1.4-3.2,2.2c-3.5,1.1-7,0.9-10.5,0.7c-11.2-1.6-22.2,1.1-33.3,2.1c-4,0.3-8.8-0.4-12.2,3.2
		c-4.9,0.6-9.7,1.3-14.6,0.7c-3.8-1.7-7.9-1.1-11.8-0.9c-5.3,0.3-10.6,1.9-15.8,1.7c-19.3-0.9-38.4,2.3-57.7,2.2
		c-3.3,0-6.8-0.2-8.2,3.9c-23.3,0-46.7,0-70,0c-1.1-3.6-4.1-4.1-7.2-3.9c-16.7,0.8-33.1-3.2-49.8-2.1c-6.6,0.4-13.2,0-19.9-1.4
		c-4.8-1-9.9-1.5-14.7,0.7c-5.5-0.3-11-0.6-16.5-0.9c-0.8-0.6-1.5-1.5-2.4-1.7c-12.9-3.3-26.2-2.7-39.2-4.5
		c-1.2-0.2-2.5,0.6-3.8,0.9c-2.9,0.3-5.8,0.4-8.6-0.6c-12-5.2-24.7-4.9-37.4-5.4c-2.9,0.2-5.8,0.3-8.6-0.7
		c-8.6-5.1-18.1-4.9-27.5-5.1c-2.9,0.1-5.7,0.2-8.5-0.9c-8-4.2-16.5-5.8-25.4-5.3c-2.2-0.2-4.4-0.4-6.6-0.6
		c-6.3-5.4-14.1-4.5-21.6-5c-2.1-0.3-4.3-0.6-6.4-1c-6.6-5.8-15.1-4.1-22.7-5.9c-1.8-0.1-3.6-0.3-5.3-0.4
		c-4.9-5.1-11.3-4.5-17.5-4.9c-2.1-0.3-4.3-0.7-6.4-1c-4.8-5.4-11.4-4.5-17.6-5c-1.5-0.3-3-0.6-4.4-0.9c-5.1-4.3-11.2-5.2-17.6-5.2
		c-1.5-0.3-3-0.6-4.4-0.8c-5.2-3.9-10.8-6.3-17.4-5.4c-1.5-0.3-3-0.5-4.5-0.8c-3.1-4.1-7.5-4.4-12.2-4c-2-0.6-3.9-1.2-5.9-1.8
		c-4.1-4.9-9.7-5.3-15.6-5.2c-1.5-0.3-2.9-0.7-4.4-1c-3.7-4-8.3-5.5-13.6-5c-1.5-0.3-2.9-0.7-4.4-1c-8.5-5.8-17.9-9.3-28.2-10
		c-1.9-0.7-3.9-1.3-5.8-2c-2.6-3.5-6.1-4.3-10.2-4c-1.9-0.7-3.9-1.3-5.8-2c-2.5-3.4-6.1-4.3-10.1-4.1c-2-0.7-3.9-1.3-5.9-2
		c-0.9-1.9-2.3-3.2-4.3-3.9c-16.6-5.5-32.5-13.1-48.7-19.6c-5.8-2.3-10.9-6.6-17.6-6.3c-1.2-0.5-2.3-1-3.5-1.5
		c-6.2-6.3-14.4-8.5-22.6-10.5c-1.1-0.6-2.3-1.1-3.4-1.7c-1.3-2.7-3.6-2.8-6.1-2.6c-1.3-0.6-2.6-1.2-3.9-1.8
		c-1.5-3.7-4.5-4.5-8.1-4.2c-1.3-0.6-2.6-1.1-3.9-1.7c-7-6.9-16.9-8.7-24.7-14.2c-2.2-1.6-4.7-2.4-7.4-2.1c-1.3-0.6-2.6-1.2-3.9-1.8
		c-2.2-4.3-6-6-10.7-5.9c-1.1-0.6-2.3-1.1-3.4-1.7c-0.9-1.9-2.5-2.6-4.5-2.4c-1.2-0.6-2.4-1.2-3.5-1.8c-2.8-3.4-5.9-6.2-10.7-6
		c-1.1-0.6-2.2-1.2-3.3-1.7c-1.8-3.4-4.7-4.4-8.3-4.5c-0.6-0.3-1.2-0.7-1.7-1c-4.8-6-11.4-9-18.7-10.8c-1.1-0.7-2.2-1.3-3.3-2
		c-0.9-1.7-2.3-2.4-4.2-2.3c-1.9-1.1-3.9-2.3-5.8-3.4c-0.8-1.9-2.3-2.6-4.3-2.5c-1.9-1.1-3.8-2.2-5.7-3.4c-0.7-1.9-2.2-2.7-4.1-2.7
		c-2.3-0.6-4.3-1.8-5.8-3.7c-0.9-1.7-2.3-2.4-4.2-2.3c-0.6-0.4-1.2-0.8-1.9-1.2c-4.6-5.6-10.1-9.7-17.4-11c-1.5-1-3-2-4.6-3
		c-0.7-2-2.2-2.8-4.3-2.8c-2.8-1.2-5.5-2.8-7.7-4.9c-2-4.4-5.6-6.5-10.3-7.1c-2.8-1.2-5.5-2.8-7.7-4.9c-2-4.3-5.6-6.4-10.1-7.2
		c-0.6-0.4-1.2-0.9-1.8-1.3c-0.7-1.9-2.1-2.7-4.1-2.7c-3.2-0.9-5.4-3.4-7.8-5.4c-1-3-3.1-4.6-6.3-4.5c-0.6-0.4-1.2-0.7-1.8-1.1
		c-0.6-2.1-2.1-2.9-4.2-3c-0.6-0.4-1.2-0.8-1.8-1.2c-0.9-3.2-2.9-4.8-6.2-4.8c-0.6-0.4-1.2-0.8-1.8-1.2c-0.9-3.3-3-4.8-6.4-4.8
		c-0.6-0.4-1.1-0.8-1.7-1.2c-0.6-2-2-2.9-4-2.9c-1.3-1-2.6-2-4-3c-0.8-3.3-2.9-4.9-6.4-4.8c-3.9-1.5-6.8-4.3-9.6-7.2
		c-0.6-2-2-2.9-4-3c-1.3-1-2.7-2-4-3c-0.8-3.1-2.8-4.8-6-5c-0.7-0.5-1.3-0.9-2-1.4c-0.9-2.9-2.9-4.4-6-4.7
		c-5.4-4.2-11.3-7.7-16-12.8c-0.8-3.2-2.8-5-6.1-5.2c-1.3-1-2.7-2-4-3.1c-0.8-3.1-2.7-4.7-5.9-5c-2.4-1.3-4.4-3.1-6.1-5.2
		c-1.4-3.8-3.8-6.3-7.9-6.7c-2.4-1.2-4.6-2.5-5.9-5c-1.3-3.9-3.8-6.5-8-7.1c-4.6-3-8.7-6.5-12.2-10.6c-0.6-3.3-2.6-5-5.9-5.3
		c-5.3-3.6-9.6-8.4-14.1-12.8c-4.9-8.2-11-15.2-20-19.1c-14.3-11.2-26-25.2-39-37.7c-4-3.8-8.5-7.3-11.1-12.5
		c-4.5-9.7-12.4-16.1-20.9-22c-9.8-9.3-18.8-19.4-27-30.2c-0.4-3.2-2.1-5.2-5.3-5.7c-3.5-2.8-6.3-6.3-8.7-10.1
		c-0.1-2-1.1-3.4-3.1-3.9c-3.1-3.2-6.6-6.2-8.9-10.2c-0.2-2.9-1.7-4.9-4.5-5.9c-0.5-0.7-1-1.3-1.5-2c-0.3-3.4-2.1-5.3-5.4-6
		c-2.1-1.6-3.6-3.6-4.6-6c-0.2-2-1.1-3.4-3.1-3.9c-2-1.7-3.8-3.6-4.9-6c-0.2-3.1-1.7-5.1-4.7-6.1c-0.4-0.6-0.9-1.2-1.3-1.8
		c-0.1-2.2-1.2-3.6-3.4-4.1c-1-1.2-1.9-2.4-2.9-3.5c0.2-3.5-1.5-5.7-4.9-6.5c-1.6-2.1-3.2-4.1-4.8-6.2c-1-4.4-2.4-8.6-7.5-9.9
		c-1.4-0.9-2.3-2.1-2.7-3.7c0-2.1-0.9-3.6-3-4.2c-1-1.3-1.9-2.6-2.9-3.9c-0.1-2-1-3.5-3-4.1c-0.4-0.6-0.7-1.1-1.1-1.7
		c0-2.2-1-3.7-3.3-4.2c-0.9-1.3-1.8-2.5-2.7-3.8c0-2.2-0.9-3.7-3.1-4.3c-0.9-1.3-1.9-2.6-2.8-3.9c-0.1-2-0.9-3.4-2.8-4.1
		c-0.4-0.6-0.8-1.3-1.2-1.9c-0.1-2-1.1-3.4-3.1-4c-0.4-0.6-0.7-1.2-1.1-1.7c0-2.1-0.9-3.6-3-4.3c-0.5-0.5-0.9-1-1-1.7
		c0.1-3.2-1.4-5.3-4.4-6.4c-2.4-2.2-4.5-4.6-5.5-7.8c0-2-0.9-3.4-2.9-4.1c-0.4-0.6-0.8-1.3-1.1-1.9c-0.1-1.9-0.9-3.4-2.8-4.1
		c-1.7-1.5-2.8-3.4-3.4-5.6c0-2.2-0.8-3.7-3-4.4c-0.5-0.5-0.8-1-1-1.7c-0.5-4.6-2.8-8.1-6.9-10.3c-0.3-0.6-0.7-1.2-1-1.7
		c0.1-1.9-0.7-3.4-2.5-4.3c-3.4-3.3-5.3-7.6-7.5-11.7c0-2-0.8-3.6-2.8-4.3c-0.4-0.7-0.7-1.3-1.1-2c-0.4-3.4-1.4-6.5-5-8
		c-1.1-1.9-2.1-3.8-3.2-5.7c0-2.1-0.8-3.6-2.8-4.3c-1.1-1.9-2.1-3.7-3.2-5.6c0.1-2.1-0.7-3.6-2.7-4.4c-1.1-1.9-2.1-3.8-3.2-5.8
		c-0.2-3.5-1.3-6.6-4.8-8.2c-1.7-1.6-2.8-3.5-3.2-5.7c-1-5.7-3-10.8-7.9-14.3c-1.9-2.2-3.5-4.7-4.1-7.6c-0.8-5-2.1-9.6-6.9-12.3
		c-0.3-0.7-0.6-1.3-0.9-2c-0.7-4-2.1-7.6-4.1-11.2c-11.7-21.7-22.3-43.9-32.9-66.1c-5.5-11.6-8.8-24.4-17.2-34.7
		c-0.8-1.7-1.6-3.4-2.4-5.1c0.4-3.7-0.8-6.6-3.7-8.9c-1.2-1.5-2.1-3.2-2.3-5.1c0.3-4.5-1.7-8.4-3.3-12.3
		c-9.9-23.8-19.3-47.8-27.8-72.2c-1.1-3.1-1.7-6.5-4.9-8.4c-0.3-1.4-0.6-2.8-0.9-4.3c-1.6-11-4.8-21.5-10.3-31.2
		c-0.1-0.3-0.5-0.4-0.8-0.6c-0.3-1.4-0.6-2.8-0.9-4.3c-1-12.5-5.4-23.9-10.6-35.2c-0.1-0.3-0.5-0.4-0.8-0.6
		c-0.2-1.4-0.5-2.8-0.7-4.2c0.5-6-0.2-11.6-5.1-15.8c-0.2-1.4-0.5-2.9-0.7-4.3c0.9-6.7-0.2-12.8-5.4-17.7c-0.2-1.4-0.4-2.9-0.5-4.3
		c0.6-7.2-0.8-13.9-5.4-19.7c-0.2-1.4-0.4-2.9-0.6-4.3c0-7.7,0-15.4-5.7-21.7c-0.1-1.4-0.3-2.9-0.4-4.3c0.2-7.7,0-15.4-5.4-21.7
		c-0.8-2-0.8-4.1-0.6-6.3c0.5-8.4-0.6-16.5-5.4-23.7c-0.8-2.1-0.8-4.2-0.5-6.3c-0.3-8.9-0.4-17.8-5.3-25.7c-1.3-2.7-1.2-5.5-0.8-8.3
		c1.1-10.1-1.7-19.8-3.6-29.6c-0.2-0.8-1.3-1.4-1.9-2.1c-0.9-2.7-0.8-5.5-0.5-8.3c1.3-8.8-0.8-17.4-2-25.9
		c-0.6-3.9,0.8-8.8-3.4-11.8c-1.2-4-0.9-8.2-0.6-12.3c0.4-1.2,1.2-2.5,1.1-3.7c-1.3-14.3-2.7-28.6-4.2-42.8
		c-0.1-1.1-1.4-2.1-2.1-3.2c-1.6-7.4-1.1-14.9-0.8-22.3c0.4-1.6,1.4-3.3,1.2-4.7c-2.1-13.2-1.9-26.4-2-39.7c0-2.6-1.3-4.4-3.8-5.2
		c0-33.3,0-66.7,0-100c4.2-1.3,3.9-4.9,3.9-8.2c0.2-10.3-0.4-20.6,1.8-30.8c0.7-3.5,0.9-7.3-1.2-10.7c-0.1-6.8-0.7-13.5,0.7-20.2
		c1.8-1.2,2.5-2.9,2.6-5c0.9-14.1,1.9-28.1,3.9-42c0.2-1.5-0.7-3.1-1.1-4.7c-0.3-4.1-0.7-8.2,0.7-12.2c5.4-11.4,4.9-23.7,5.1-35.9
		c-0.1-3.4-0.2-6.8,0.8-10.2c5.2-9.3,5.4-19.5,5.3-29.8c-0.2-2.8-0.3-5.5,0.7-8.2c5.3-7.9,5.5-16.8,5.2-25.9
		c-0.1-2.8-0.1-5.5,0.9-8.1c4.7-7.3,5.7-15.3,5.4-23.8c-0.2-2.1-0.2-4.2,0.6-6.2c4.1-6,5.5-12.7,5.1-19.9c0.2-2,0.5-4.1,0.7-6.1
		c4.3-5.9,5.7-12.7,5.3-19.9c0.3-2,0.6-4.1,0.9-6.1c4.6-5.1,5.3-11.4,5.1-17.9c0.3-2,0.6-4.1,1-6.1c3.5-4.7,6-9.8,5-15.9
		c0.3-2,0.7-4.1,1-6.1c3.6-4.7,5.8-9.8,5.1-15.8c0.2-1.4,0.5-2.8,0.7-4.1c3.7-4.7,6-9.8,5.2-15.9c0.2-1.4,0.5-2.8,0.7-4.1
		c3.9-4.6,6-9.7,5.4-15.8c0.3-1.4,0.6-2.8,0.9-4.2c4.1-3.7,5.7-8.4,5-13.9c0.3-1.4,0.6-2.8,1-4.1c6.4-8.4,8.5-18.4,10.2-28.5
		c0.5-1.8,1.1-3.7,1.6-5.5c3.8-2.6,4.6-6.4,4.3-10.6c0.5-1.8,1.1-3.6,1.6-5.4c6.3-7.7,8.6-17,10.4-26.5c0.5-3.5,1.7-6.8,3.9-9.5
		c1-1.3,2.3-2.4,3-3.9c6.5-15.1,13.1-30.2,19.3-45.5c2.1-5.1,6-9.7,5.5-15.7c0.7-1.6,1.5-3.3,2.2-4.9c1.6-1.1,2.2-2.6,2.1-4.5
		c0.4-1.2,0.9-2.3,1.3-3.5c5.2-4.5,7.6-10.3,8.4-16.9c0.3-1,0.6-2.1,1-3.1c2.5-0.9,3.3-2.7,2.9-5.1c1-2.3,2.1-4.6,3.1-6.9
		c2.5-0.9,3.3-2.7,2.9-5.1c1-2.3,2.1-4.6,3.1-6.9c2.5-0.9,3.3-2.7,2.9-5.1c1-2.3,2.1-4.6,3.1-6.9c2.5-0.9,3.3-2.7,2.9-5.1
		c0.4-0.9,0.8-1.9,1.3-2.8c5.8-4,7.7-10.2,9.1-16.6c0.5-1.1,1-2.3,1.5-3.4c1.8-0.9,2.6-2.4,2.6-4.4c0.1-0.6,0.3-1.2,0.7-1.6
		c2.4-0.8,3.2-2.6,3-5c0.5-1,1-1.9,1.6-2.9c2-0.9,2.7-2.6,2.6-4.7c1.6-3.1,3.3-6.2,4.9-9.4c6.6-6.2,11-13.7,13.2-22.4
		c0.4-2.2,1.6-4,3.3-5.6c1.9-0.9,2.7-2.4,2.7-4.5c0.1-0.6,0.4-1.1,0.8-1.6c3.8-1.5,4.8-4.7,5.2-8.4c0.4-2.2,1.5-4.1,3.2-5.6
		c6.8-5.2,10.5-12.4,12.8-20.4c0.1-0.6,0.3-1.2,0.7-1.6c2.2-0.7,3.2-2.3,3.2-4.5c1.8-4.2,4.1-8,7.1-11.5c4.8-1.8,6.3-5.8,6.9-10.4
		c1.7-2.5,3.4-5.1,5.1-7.6c4.8-1.8,6.3-5.8,6.9-10.4c0.9-1.2,1.8-2.4,2.6-3.7c4.3-2.2,6.6-5.8,7.3-10.5c0.2-0.6,0.5-1.1,1-1.5
		c2-0.8,3-2.3,3.1-4.4c1.6-3.6,3.9-6.7,6.6-9.6c2.2-0.7,3.3-2.2,3.4-4.4c0.9-1.2,1.7-2.5,2.6-3.7c2.3-0.7,3.3-2.2,3.3-4.6
		c0.1-0.6,0.4-1,0.8-1.4c5.6-2.2,7.8-7,9.3-12.3c0.9-1.2,1.7-2.5,2.6-3.7c2.3-0.6,3.3-2.2,3.3-4.4c0.9-1.2,1.8-2.4,2.7-3.5
		c3.5-0.8,5.2-3,5.3-6.6c1.8-4.7,5.6-7.8,8.8-11.4c2.1-0.7,3.2-2.1,3.3-4.3c1-2.3,2.4-4.2,4.6-5.6c3.4-0.9,5.3-3,5.3-6.7
		c0.1-0.6,0.5-1,0.9-1.4c3.2-0.9,5-2.9,5.2-6.2c1.1-2.3,2.7-4.2,4.7-5.8c3.3-0.8,5.1-3,5.2-6.4c1.6-3,4.1-5.3,6.5-7.6
		c3.5-0.8,5.3-2.9,5.4-6.5c0.2-0.6,0.5-1.1,1-1.5c5.4-2.6,9.7-6.1,11.1-12.4c1.5-3.1,4-5.4,6.5-7.7c4.4-1.2,7.1-3.8,7.4-8.5
		c3.9-4.7,7.5-9.7,12.5-13.4c5.8-2.5,10.5-6,11.4-12.8c3.5-3.7,7-7.5,10.5-11.2c3.2-0.5,5.2-2.7,7.3-4.8
		c15.4-15.4,30.8-30.8,46.2-46.2c1.9-1.9,3.7-3.8,4.3-6.5c3.6-3.8,6.8-8,11.4-10.8c5.8-0.7,8.8-4.4,10.5-9.5c4-4.7,8.3-9,13.5-12.5
		c5.6-0.7,8.6-4.3,10.6-9.2c1.5-2,3.3-3.6,5.5-4.8c5.6-0.9,8.7-4.4,10.5-9.5c0.8-1.3,1.9-2.2,3.3-2.6c4.7-0.2,7.3-3,8.7-7.3
		c1.3-2.2,3.2-3.6,5.4-4.7c3.6-0.1,5.7-1.8,6.6-5.3c1.2-0.9,2.3-1.8,3.5-2.7c4.6-0.4,7.3-3,8.5-7.3c0.3-0.4,0.8-0.7,1.3-0.8
		c3.7,0,5.8-1.8,6.7-5.4c1.8-1.5,3.7-3,5.5-4.5c3.4-0.1,5.5-1.8,6.5-4.9c0.4-0.5,0.8-0.9,1.4-1.1c3.5-0.1,5.7-1.9,6.5-5.4
		c0.3-0.4,0.7-0.7,1.2-0.8c3.7,0.1,5.9-1.6,6.8-5.1c0.3-0.4,0.6-0.7,1.1-0.9c9.2-3.6,17-9,22.9-17.1c0.3-0.5,0.7-0.7,1.3-0.9
		c3.5,0.1,5.7-1.6,6.8-4.9c0.4-0.5,0.9-0.8,1.5-1c3.4-0.1,5.5-1.8,6.5-5c0.4-0.5,0.9-0.8,1.6-1c2.2-0.1,3.7-1.1,4.4-3.2
		c0.4-0.5,0.8-0.8,1.4-0.9c8.1-1.7,14-6.4,18.6-13c0.4-0.5,0.9-0.8,1.5-1c2.2-0.1,3.8-1.1,4.5-3.2c0.4-0.4,0.9-0.7,1.5-0.8
		c4.7-0.6,8.8-2.1,10.5-7.1c0.4-0.5,0.8-0.8,1.4-0.9c2.2,0,3.8-1,4.6-3.2c0.4-0.4,0.9-0.7,1.5-0.8c8-2.6,15.7-5.7,20.5-13.3
		c0.4-0.4,0.8-0.7,1.4-0.8c3.5,0,6.3-1.8,9.1-3.6c15.4-9.9,31.1-19.1,46.9-28.3c4.5-2.6,9.9-4.1,12.6-9.3c0.4-0.4,0.9-0.7,1.4-0.8
		c7.7-2.2,15.3-4.6,20.5-11.4c0.3-0.4,0.8-0.7,1.3-0.7c10.6-2.2,19.6-8.3,29-13.2c41.6-21.7,84.2-41.3,127.7-59.2
		c24.7-10.1,49.7-19.1,74.6-28.6c3.1-1.2,7.5-4.6,10-0.9c2.6,3.8-2.4,6.2-4.5,8.9c-16.8,22.3-33.1,45-48.9,68
		c-19.4,28.3-38.2,56.9-55.5,86.5c-16.2,27.9-32,56-46.6,84.8c-13.1,25.8-25.8,51.8-37.9,78.1c-14,30.5-26.5,61.8-38.2,93.2
		c-9.9,26.5-19.4,53.1-27.6,80.1c-5.5,18.1-11,36.2-15.9,54.5c-4.8,18-9.6,36-13.8,54.1c-5.7,24.3-10.7,48.7-15.6,73.1
		c-3.4,16.9-6.5,33.9-9.1,51c-2.7,17.7-4.8,35.5-7,53.3c-1.9,15.8-3.5,31.7-5.4,47.5c-1.2,10.2-1.9,20.6-2.1,30.8
		c-0.4,21.3-2.2,42.5-3,63.8c-0.8,22.3-2.7,44.6-1.1,66.8c1.5,21.2-0.1,42.6,3.3,63.7c0.4,2.3,0.2,4.7,0.2,7c0,24.6,3.4,49,5.3,73.5
		c1.6,21.2,4.8,42.3,7.3,63.4c2.8,23.7,8,47.2,12.2,70.8c5,28.2,11.2,56.1,18.1,83.8c8.4,33.5,18,66.7,28.1,99.8
		c10,32.8,22.5,64.6,33.8,96.8c7,20,16.1,39.4,24.6,58.9c8.9,20.4,18,40.8,27.7,60.8c8.2,17.1,17.3,33.7,25.9,50.6
		c1.6,3.2,4.2,6.3,1.8,10.2c-2.3-2-4.7-3.8-6.8-5.9c-80.6-80.6-161.6-160.7-241.6-241.9c-43.7-44.3-116.6-44.4-159.5,0
		c-40.8,42.2-41.7,112.1-0.2,153.6c221.7,221.8,443.4,443.5,665.2,665.2c4.5,4.5,9.3,8.6,14.5,12.2c42.6,28.9,102.8,24.8,140.5-13.3
		C1365.5,2383,1380.6,2368.5,1395.6,2353.8z"/>
	<path class="st2" d="M2799.3,2663.9c1.7-1.8,3.3-3.7,5-5.5c3.3-2,6.5-4.2,7.2-8.5c1.6-1.9,3.2-3.8,4.8-5.7c4.3-2.4,7.8-5.4,9-10.4
		c1-1.2,2-2.4,3-3.6c3.6-1.7,6.1-4.4,7.2-8.3c0.9-1.2,1.8-2.4,2.8-3.6c3.4-1.9,6.4-4.1,6.8-8.4c0.6-0.4,1-0.9,1.2-1.5
		c3.5-1.8,6.3-4.3,7.1-8.5c0.9-1.3,1.8-2.5,2.8-3.8c2.9-1.1,4.7-3.1,5.1-6.2c0.5-0.4,0.8-0.9,1-1.5c2.7-1,4.2-3.2,5.8-5.3
		c32.5-43.1,63.4-87.3,92.2-133c31.5-49.9,59.9-101.6,85.6-154.7c22.7-46.8,42.8-94.7,60.6-143.6c18.6-50.7,34.6-102.2,48-154.5
		c15.1-59.1,26.8-118.9,34.9-179.4c3.9-29.7,7.1-59.5,9.3-89.4c1.9-25.9,3.7-51.8,3.8-77.8c0-2.4,0.5-4.6,1.5-6.8
		c0,520,0,1040,0,1560c-506,0-1012,0-1518,0c0.9-2.7,3.3-3,5.6-3c4.3-0.1,8.6,0.3,12.8-0.3c9-1.2,18.4,0.5,27-3.6
		c4.9,0.6,9.8-0.1,14.6-0.7c7.8,1.1,37.9-2,44.8-4.6c0.3-0.1,0.5-0.5,0.7-0.7c3.5,0.2,7.1,0.4,10.5-0.7c11.8,0.3,23.4-1.3,34.7-4.7
		c0.3-0.1,0.5-0.4,0.7-0.7c2.2-0.2,4.4-0.4,6.6-0.5c10.8,0.1,21.4-0.7,31.4-5.5c2.2-0.2,4.4-0.4,6.6-0.6c8.8-0.1,17.6-0.5,25.5-5.3
		c2.2-0.2,4.4-0.5,6.5-0.7c8.2,0,16.2-0.8,23.5-5.3c2.2-0.3,4.3-0.6,6.5-0.8c6.9-0.3,13.7-0.9,19.6-4.9c2.1-0.3,4.3-0.7,6.4-1
		c7.3-0.3,14.5-1.1,20.7-5.7c1.1-0.1,2.2-0.2,3.3-0.2c6.4,0.3,12.4-1,17.6-4.9c2.1-0.4,4.2-0.7,6.4-1.1c5.6-0.4,11.2-0.9,15.6-4.9
		c1.5-0.3,2.9-0.6,4.4-0.9c6.8,0,13.3-1.3,18.7-5.9c1.1-0.1,2.2-0.2,3.3-0.4c11.8-1.9,23.1-4.9,33.6-10.8c1.5-0.4,2.9-0.7,4.4-1
		c5-0.5,10.1-0.6,13.7-4.9c1.4-0.4,2.9-0.7,4.3-1.1c5.1-0.2,9.9-1.2,13.6-5.1c1.4-0.4,2.9-0.7,4.3-1.1c10-1.1,18.8-6,28.1-9.3
		c4.9-1.8,10.4-2.4,14.2-6.6c1.9-0.7,3.8-1.3,5.7-2c1,0,2.1,0.3,2.9,0c20.7-8.6,41.5-17.2,62.2-25.8c2.2-0.9,4.1-2.1,5.6-4
		c1.1-0.5,2.2-0.9,3.4-1.4c2.5,0,4.9-0.3,6.3-2.8c1.2-0.5,2.5-1.1,3.7-1.6c5.1-0.3,9.3-2.5,12.8-6.1c1.1-0.4,2.2-0.9,3.2-1.3
		c6.5-2.2,13.4-3.7,18.4-9c1.2-0.6,2.4-1.2,3.6-1.7c3.7,0.3,6.3-1.5,8.4-4.3c1.2-0.6,2.4-1.2,3.6-1.7c3.7,0.3,6.3-1.5,8.4-4.3
		c1.2-0.6,2.4-1.2,3.6-1.7c3.7,0.3,6.3-1.5,8.4-4.3c1.2-0.6,2.4-1.2,3.6-1.9c4.6-0.2,7.9-2.7,10.8-5.9c1.1-0.5,2.1-1,3.2-1.5
		c6.2-1.4,11.7-4.2,16.2-8.9c2.2-0.6,4.2-1.5,5.8-3.1c9.7-3.2,18.4-8.2,26.2-14.9c1.9-1.1,3.9-2.2,5.8-3.2c2.1,0.1,3.5-0.8,4.3-2.7
		c1.9-1.1,3.8-2.2,5.7-3.2c2.1,0.1,3.5-0.8,4.4-2.7c2.2-0.6,4-1.6,5.6-3.3c2.1,0,3.5-0.9,4.4-2.8c1.9-1.1,3.8-2.2,5.6-3.3
		c2.1,0.1,3.5-0.8,4.2-2.8c0.6-0.4,1.2-0.8,1.8-1.2c2.1,0.2,3.5-0.9,4.3-2.8c0.6-0.1,1.2-0.4,1.7-0.8c5.8-1.5,10.5-4.7,14.3-9.1
		c0.7-0.1,1.2-0.5,1.7-1c2.1-0.2,3.5-1.2,4.4-3c3-0.8,5.3-2.9,7.6-4.9c5.7-1.6,10.4-4.6,14.1-9.3c0.6-0.4,1.2-0.8,1.8-1.3
		c5.3-1.2,9.4-4.2,12.5-8.6c3.1-0.9,5.4-2.9,7.6-5.1c2.1,0,3.4-1.2,4.3-3c1.3-0.9,2.5-1.8,3.8-2.7c4.4-1.1,8.1-3.1,10.2-7.3
		c0.6-0.4,1.1-0.8,1.7-1.3c3.2,0,5.1-1.9,6.5-4.6c0.6-0.2,1.1-0.6,1.6-1.1c3.2-0.2,5.1-2.2,6.6-4.8c0.6-0.1,1.1-0.5,1.4-0.9
		c3.3-0.3,5.1-2.4,6.5-5.1c0.6-0.2,1.1-0.5,1.5-1c2.2,0,3.5-1.2,4.2-3.1c1.6-0.4,2.8-1.4,3.6-2.8c3.2-0.4,5.2-2.4,6.7-5
		c0.6-0.1,1.1-0.5,1.4-0.9c3.2-0.4,5-2.5,6.4-5.2c0.5-0.4,1.1-0.8,1.6-1.2c3.3-0.1,5.1-2.1,6.4-4.9c0.5-0.4,1.1-0.8,1.6-1.2
		c4.1-0.6,6.5-3.4,8.4-6.8c1.2-0.9,2.5-1.8,3.7-2.7c2.1-0.3,3.4-1.5,4.1-3.4c2.4-1.2,4.2-2.9,5.9-4.9c3.3-0.2,5.1-2.2,6.2-5
		c3.3-1.3,5.7-3.7,7.7-6.5c2.1-0.3,3.5-1.4,4.2-3.5c1.6-0.4,2.9-1.4,3.7-2.8c4.2-0.8,6.5-3.6,8.3-7.2c2.4-1.2,4.2-3,5.8-5.1
		c4.9-1.2,8-4.6,10.3-8.9c3.2-1.5,5.3-4.3,7.7-6.8c5.4-2.3,9.5-6.1,12.2-11.3c3.1-1.6,5.5-4.1,7.8-6.8c7.1-3.3,11.9-9,16.2-15.3
		c16-14.1,30.8-29.3,45.7-44.5c5.6-5.7,10.9-11.6,16.4-17.4c6.2-4.4,12-9,15.1-16.3c2.7-2.2,5.2-4.5,6.9-7.6
		C2791.8,2674.7,2796.5,2670.2,2799.3,2663.9z"/>
	<path class="st2" d="M36.7,1927.7c-0.2,2.1-0.2,4.2,0.6,6.3c1.5,7.3,0,15.4,5.4,21.7c0.1,1.4,0.3,2.9,0.4,4.3
		c1,7.5,0.7,15.3,5.7,21.7c0.2,1.4,0.4,2.9,0.6,4.3c0.7,6.9,0.7,13.9,5.4,19.7c0.2,1.4,0.4,2.9,0.5,4.3c0.6,6.3,0.9,12.6,5.4,17.7
		c0.2,1.4,0.5,2.9,0.7,4.3c0.6,5.6,1,11.3,5.1,15.8c0.2,1.4,0.5,2.8,0.7,4.2c1,11.8,6.2,22.5,9.3,33.8c0.2,0.8,1.4,1.3,2.1,2
		c0.3,1.4,0.6,2.8,0.9,4.3c-0.7,3.1,0.7,5.9,1.7,8.5c3.1,7.7,3.5,16.6,9.4,23.2c0.3,1.4,0.6,2.8,0.9,4.3c-0.5,1.7,0.1,3.2,0.7,4.8
		c8.8,23.2,17.3,46.4,26.4,69.4c2.5,6.4,3.9,13.4,8.9,18.7c0.2,2,1.1,3.6,2.3,5.1c-0.9,3.9,1.5,6.3,3.7,8.9c0.8,1.7,1.6,3.4,2.3,5.1
		c-0.8,2.5,0.6,4.5,1.5,6.6c14.3,32.4,29.5,64.4,46.1,95.7c1.8,3.4,2.5,7.7,6.5,9.7c0.3,0.7,0.6,1.3,0.9,2c1,4.9,2.8,9.2,6.9,12.3
		c0.7,2.9,2.2,5.4,4.1,7.6c0.7,5.9,3.9,10.3,7.9,14.3c0.4,2.3,1.6,4.2,3.2,5.7c0,3.7,1.8,6.3,4.8,8.2c1.1,1.9,2.1,3.8,3.2,5.8
		c0,2,0.9,3.5,2.7,4.4c1.1,1.9,2.1,3.7,3.2,5.6c0,2.1,1.1,3.4,2.8,4.3c1.1,1.9,2.1,3.8,3.2,5.7c0.5,3.4,1.7,6.3,5,8
		c0.4,0.7,0.7,1.3,1.1,2c0,2,1,3.4,2.8,4.3c2.2,4.1,4.1,8.4,7.5,11.7c-0.2,2,0.6,3.5,2.5,4.3c0.3,0.6,0.7,1.2,1,1.7
		c0.9,4.3,2.9,8,6.9,10.3c0.2,0.7,0.5,1.2,1,1.7c0,2.1,1,3.6,3,4.4c0.6,2.2,1.8,4,3.4,5.6c-0.2,2.1,0.9,3.4,2.8,4.1
		c0.4,0.6,0.8,1.3,1.1,1.9c-0.1,2.1,1.1,3.3,2.9,4.1c0.9,3.2,3.1,5.6,5.5,7.8c-0.4,3.4,2,4.9,4.4,6.4c0.2,0.7,0.5,1.2,1,1.7
		c0.1,2.1,1.1,3.5,3,4.3c0.4,0.6,0.7,1.2,1.1,1.7c0.1,2.1,1.2,3.3,3.1,4c0.4,0.6,0.8,1.3,1.2,1.9c0,2,0.9,3.3,2.8,4.1
		c0.9,1.3,1.9,2.6,2.8,3.9c0.1,2.1,1.2,3.4,3.1,4.3c0.9,1.3,1.8,2.5,2.7,3.8c0.3,2,1.4,3.4,3.3,4.2c0.4,0.6,0.7,1.1,1.1,1.7
		c0,2.1,1,3.4,3,4.1c1,1.3,1.9,2.6,2.9,3.9c0.1,2.1,1.1,3.5,3,4.2c0.5,1.6,1.3,2.8,2.7,3.7c1.4,4.1,3.4,7.8,7.5,9.9
		c1.6,2.1,3.2,4.1,4.8,6.2c0.3,3.2,2.2,5.1,4.9,6.5c1,1.2,1.9,2.4,2.9,3.5c0.3,2,1.4,3.4,3.4,4.1c0.4,0.6,0.9,1.2,1.3,1.8
		c0,3.3,2.1,4.9,4.7,6.1c1.1,2.4,3,4.3,4.9,6c0.1,2.1,1.2,3.3,3.1,3.9c1,2.4,2.5,4.4,4.6,6c0.6,3,2.6,4.9,5.4,6c0.5,0.7,1,1.3,1.5,2
		c-0.2,3.3,1.8,4.8,4.5,5.9c2.3,4,5.7,6.9,8.9,10.2c0.2,2,1.2,3.3,3.1,3.9c2.4,3.8,5.2,7.2,8.7,10.1c0.6,3,2.6,4.7,5.3,5.7
		c8.2,10.8,17.2,20.9,27,30.2c5.3,8.9,12.1,16.4,20.9,22c2.6,5.1,7.1,8.6,11.1,12.5c13.1,12.5,24.7,26.4,39,37.7
		c5.1,8,11.8,14.3,20,19.1c4.6,4.4,8.8,9.2,14.1,12.8c0.9,2.9,2.7,4.9,5.9,5.3c3.5,4.2,7.6,7.7,12.2,10.6c1.7,3.5,3.9,6.3,8,7.1
		c1.3,2.4,3.6,3.8,5.9,5c1.7,3.4,3.7,6.3,7.9,6.7c1.7,2.2,3.7,4,6.1,5.2c1.1,2.7,2.7,4.7,5.9,5c1.3,1,2.7,2,4,3.1
		c1.2,2.8,3,4.7,6.1,5.2c4.6,5.1,10.6,8.6,16,12.8c1,2.8,2.8,4.7,6,4.7c0.7,0.5,1.3,0.9,2,1.4c1.2,2.6,2.9,4.7,6,5c1.3,1,2.7,2,4,3
		c0.7,1.9,1.9,3,4,3c2.9,2.9,5.7,5.7,9.6,7.2c1.4,2.6,3.2,4.6,6.4,4.8c1.3,1,2.6,2,4,3c0.7,1.9,2,3,4,2.9c0.6,0.4,1.1,0.8,1.7,1.2
		c1.4,2.6,3.1,4.6,6.4,4.8c0.6,0.4,1.2,0.8,1.8,1.2c1.3,2.5,3.1,4.6,6.2,4.8c0.6,0.4,1.2,0.8,1.8,1.2c0.8,1.9,2.1,2.9,4.2,3
		c0.6,0.4,1.2,0.7,1.8,1.1c1.4,2.5,3,4.6,6.3,4.5c2.5,2,4.6,4.5,7.8,5.4c0.8,1.8,2,2.9,4.1,2.7c0.6,0.4,1.2,0.9,1.8,1.3
		c2.1,4.2,5.9,6,10.1,7.2c2.3,2.1,4.9,3.7,7.7,4.9c2.2,4.1,6,6,10.3,7.1c2.3,2.1,4.9,3.7,7.7,4.9c0.8,1.9,2.3,2.8,4.3,2.8
		c1.5,1,3,2,4.6,3c4.8,5.2,10.5,9.1,17.4,11c0.6,0.4,1.2,0.8,1.9,1.2c0.8,1.9,2.2,2.6,4.2,2.3c1.5,1.9,3.5,3.1,5.8,3.7
		c0.8,1.8,2.2,2.7,4.1,2.7c1.9,1.1,3.8,2.2,5.7,3.4c0.8,1.9,2.2,2.7,4.3,2.5c1.9,1.1,3.9,2.3,5.8,3.4c0.8,1.9,2.2,2.6,4.2,2.3
		c1.1,0.7,2.2,1.3,3.3,2c5.1,5.5,11.6,8.7,18.7,10.8c0.6,0.3,1.2,0.7,1.7,1c2,2.8,4.7,4.6,8.3,4.5c1.1,0.6,2.2,1.2,3.3,1.7
		c2.8,3.4,6,6,10.7,6c1.2,0.6,2.4,1.2,3.5,1.8c0.9,1.8,2.4,2.6,4.5,2.4c1.1,0.6,2.3,1.1,3.4,1.7c3,3,6,6,10.7,5.9
		c1.3,0.6,2.6,1.2,3.9,1.8c9.7,7.4,20.4,12.9,32.1,16.3c1.3,0.6,2.6,1.1,3.9,1.7c1.9,2.9,4.5,4.5,8.1,4.2c1.3,0.6,2.6,1.2,3.9,1.8
		c1.3,2.6,3.6,2.9,6.1,2.6c1.1,0.6,2.3,1.1,3.4,1.7c6.6,5.5,14.5,8.3,22.6,10.5c1.2,0.5,2.3,1,3.5,1.5c2.1,2.7,5.3,3.9,8.3,5.1
		c13,5.6,25.9,11.5,39.2,16.5c7.6,2.9,14.7,7.3,23.1,8.1c2,0.7,3.9,1.3,5.9,2c2.6,3.2,6.1,4.2,10.1,4.1c1.9,0.7,3.9,1.3,5.8,2
		c2.7,3.1,6.2,4.2,10.2,4c1.9,0.7,3.9,1.3,5.8,2c8.7,5.4,18.2,8.2,28.2,10c1.5,0.3,2.9,0.7,4.4,1c3.7,3.9,8.6,4.7,13.6,5
		c1.5,0.3,2.9,0.7,4.4,1c4.4,4,9.8,5.1,15.6,5.2c2,0.6,3.9,1.2,5.9,1.8c3.5,3.1,7.7,3.9,12.2,4c1.5,0.3,3,0.5,4.5,0.8
		c5.2,3.9,11.1,5.4,17.4,5.4c1.5,0.3,3,0.6,4.4,0.8c5.2,4,11.2,5.3,17.6,5.2c1.5,0.3,3,0.6,4.4,0.9c5,4.5,11.5,4,17.6,5
		c2.1,0.3,4.3,0.7,6.4,1c5.1,4.5,11.4,4.1,17.5,4.9c1.8,0.1,3.6,0.3,5.3,0.4c6.6,5.6,14.8,5,22.7,5.9c2.1,0.3,4.3,0.6,6.4,1
		c6.5,4.6,14.2,4.3,21.6,5c2.2,0.2,4.4,0.4,6.6,0.6c7.9,4.4,16.6,5.2,25.4,5.3c2.7,1.1,5.6,1.1,8.5,0.9c8.6,4.8,18.1,4.6,27.5,5.1
		c2.8,1.1,5.7,0.9,8.6,0.7c12,5,24.7,5.3,37.4,5.4c2.8,0.9,5.7,0.9,8.6,0.6c7.2,3.1,36.5,6.5,45.4,5.3c5.5,0.3,11,0.6,16.5,0.9
		c1.8,1.9,4.1,1.8,6.4,2c9.8,0.9,19.7,1.7,29.6,1.7c3.4,0,7.5-1.2,9.6,3.1c-506.7,0-1013.3,0-1520,0c0-500.7,0-1001.3,0-1502
		c1.5-0.8,3.1-0.7,4.7-0.4c-0.3,7.5-0.9,14.9,0.8,22.3c-0.8,6.1,2.3,42.9,4.1,48.1c0.2,0.6,0.8,1.1,1.2,1.6
		c-0.3,4.1-0.6,8.2,0.6,12.3c-0.3,11.6,1.7,22.9,3.5,34.3c0.2,1.2,1.3,2.3,1.9,3.4c-0.3,2.8-0.4,5.6,0.5,8.3
		c0.8,10.7,0.5,21.7,5.6,31.7c-0.4,2.8-0.5,5.6,0.7,8.3c1.4,8.6-0.2,17.9,5.3,25.7c-0.3,2.1-0.3,4.3,0.5,6.3
		C32.5,1912,31.5,1920.5,36.7,1927.7z"/>
	<path class="st2" d="M3204,1560c-3-8.1-1.5-16.5-1.7-24.7c-1.3-41-5-81.7-9.7-122.4c-5-43-11.8-85.7-20.4-128.1
		c-12.1-60.1-27.6-119.4-46.7-177.7c-22.4-68.4-49.2-135.1-80.6-200c-29.8-61.5-63.3-121-100.7-178.2
		c-39.1-59.7-81.9-116.6-128.5-170.7c-38.1-44.2-78.5-86.2-121.1-126c-68.3-63.8-141.6-121.2-220.1-172.2
		c-54.8-35.6-111.5-68-170.2-96.7c-57.5-28.1-116.5-52.6-177-73.6c-50.1-17.4-100.9-32.3-152.4-44.5
		c-44.1-10.4-88.5-19.1-133.3-25.7c-44.8-6.6-89.8-11.6-135-14.4C1696.4,4.5,1686,5.2,1676,2c509.3,0,1018.7,0,1528,0
		C3204,521.3,3204,1040.7,3204,1560z"/>
	<path class="st2" d="M178.5,874.1c-1,2.3-2.1,4.6-3.1,6.9c-1.7,1.3-2.9,2.9-2.9,5.1c-1,2.3-2.1,4.6-3.1,6.9
		c-1.7,1.3-2.9,2.9-2.9,5.1c-1,2.3-2.1,4.6-3.1,6.9c-1.7,1.3-2.9,2.9-2.9,5.1c-0.3,1-0.6,2.1-1,3.1c-4.5,4.8-7.3,10.5-8.4,16.9
		c-0.4,1.2-0.9,2.3-1.3,3.5c-1.9,0.9-2.7,2.4-2.1,4.5c-0.7,1.6-1.5,3.3-2.2,4.9c-3.2,2.6-4.4,6.5-6,10.1
		c-5.4,12.4-10.8,24.8-16,37.3c-2.3,5.7-6,11-5.8,17.6c-2.3,2.8-3.5,6-3.9,9.5c-5.6,8-8.5,17-10.4,26.5c-0.5,1.8-1.1,3.6-1.6,5.4
		c-3.4,2.7-4.3,6.5-4.3,10.6c-0.5,1.8-1.1,3.7-1.6,5.5c-5.2,8.9-8.5,18.4-10.2,28.5c-0.3,1.4-0.6,2.8-1,4.1c-3.8,3.8-4.6,8.8-5,13.9
		c-0.3,1.4-0.6,2.8-0.9,4.2c-4.1,4.5-4.8,10.1-5.4,15.8c-0.2,1.4-0.5,2.8-0.7,4.1c-4.2,4.5-4.7,10.2-5.2,15.9
		c-0.2,1.4-0.5,2.8-0.7,4.1c-4.3,4.4-4.5,10.2-5.1,15.8c-0.3,2-0.7,4.1-1,6.1c-4.4,4.5-4.3,10.3-5,15.9c-0.3,2-0.6,4.1-1,6.1
		c-4.7,5.1-4.1,11.7-5.1,17.9c-0.3,2-0.6,4.1-0.9,6.1c-4.5,5.9-4.4,13-5.3,19.9c-0.2,2-0.5,4.1-0.7,6.1c-4.8,5.8-4.2,13-5.1,19.9
		c-0.8,2-0.9,4.1-0.6,6.2c-4.9,7.2-4.6,15.6-5.4,23.8c-1,2.6-1,5.4-0.9,8.1c-4.5,8.1-4.7,17-5.2,25.9c-0.9,2.7-0.9,5.4-0.7,8.2
		c-4.9,9.4-4.7,19.7-5.3,29.8c-1,3.3-0.9,6.7-0.8,10.2c-3,6.5-5.9,27.4-5.1,35.9c-1.4,4-1.1,8.1-0.7,12.2c-0.6,1.2-1.6,2.2-1.8,3.5
		c-2.3,15-3.2,30.2-4.2,45.4c-0.1,1,0.3,1.9,0.5,2.9c-1.4,6.7-0.8,13.5-0.7,20.2c-1.5-0.1-3-0.2-4.6-0.3C2,1002,2,502,2,2
		c501.3,0,1002.7,0,1504,0c-1.4,2.3-3.8,2.5-6.1,2.6c-35.2,2-70.3,5.7-105.3,10.1c-37,4.7-73.7,10.9-110.2,18.4
		c-36.2,7.4-72.1,15.8-107.7,25.7c-72.5,20.3-143.4,45.1-212.4,75.5c-39,17.2-77.3,35.7-114.9,55.8c-2.9,1.6-6.1,2.7-8,5.7
		c-0.5,0.1-1,0.3-1.3,0.7c-7.8,2-14.7,5.8-20.5,11.4c-0.6,0.1-1.1,0.4-1.4,0.8c-3.6-0.1-6.3,2-9.1,3.7
		c-17.7,10.5-35.3,21.1-52.8,31.7c-2.5,1.5-5.2,2.9-6.7,5.7c-0.6,0.1-1,0.4-1.4,0.8c-7.7,3-14.9,6.9-20.5,13.3
		c-0.6,0.1-1.1,0.4-1.5,0.8c-2.2,0.1-3.7,1.2-4.6,3.2c-0.6,0.2-1.1,0.5-1.4,0.9c-4.6,0.8-8,3.3-10.5,7.1c-0.6,0.1-1.1,0.4-1.5,0.8
		c-2.2,0.1-3.7,1.2-4.5,3.2c-0.6,0.2-1.1,0.5-1.5,1c-7.4,2.6-13.4,7.3-18.6,13c-0.6,0.1-1.1,0.4-1.4,0.9c-2.1,0.2-3.6,1.2-4.4,3.2
		c-0.6,0.2-1.1,0.5-1.6,1c-3.4,0.1-5.2,2.2-6.5,5c-0.6,0.2-1.1,0.5-1.5,1c-3.4,0-5.3,2.1-6.8,4.9c-0.5,0.1-0.9,0.4-1.3,0.9
		c-8.9,4-16.6,9.6-22.9,17.1c-0.5,0.1-0.9,0.4-1.1,0.9c-3.3,0.4-5.3,2.4-6.8,5.1c-0.5,0.1-0.9,0.3-1.2,0.8c-3.3,0.4-5.2,2.5-6.5,5.4
		c-0.6,0.2-1.1,0.6-1.4,1.1c-3.3,0.1-5.2,2.2-6.5,4.9c-1.8,1.5-3.7,3-5.5,4.5c-3.3,0.4-5.3,2.5-6.7,5.4c-0.5,0.1-1,0.3-1.3,0.8
		c-4.1,1-6.7,3.7-8.5,7.3c-1.2,0.9-2.3,1.8-3.5,2.7c-3.2,0.5-5.3,2.4-6.6,5.3c-2.1,1.2-4.1,2.5-5.4,4.7c-4.2,0.9-6.7,3.7-8.7,7.3
		c-1.5,0.4-2.6,1.3-3.3,2.6c-4.9,1.6-8.1,5.1-10.5,9.5c-2.3,1.1-4,2.8-5.5,4.8c-5.1,1.2-8.1,4.9-10.6,9.2
		c-5.1,3.5-9.5,7.8-13.5,12.5c-5.1,1.4-7.9,5.4-10.5,9.5c-4.6,2.8-7.8,6.9-11.4,10.8c-3.3,0.3-5.1,2.8-7.2,4.9
		c-15.2,15.2-30.4,30.3-45.6,45.5c-2.1,2.1-4.5,3.9-5.1,7.1c-3.5,3.7-7,7.5-10.5,11.2c-4.8,3.4-9.4,6.9-11.4,12.8
		c-5,3.7-8.6,8.7-12.5,13.4c-3.5,2-6.6,4.2-7.4,8.5c-2.5,2.3-4.9,4.6-6.5,7.7c-5,3-9.2,6.6-11.1,12.4c-0.5,0.4-0.8,0.9-1,1.5
		c-2.9,1.2-4.9,3.3-5.4,6.5c-2.5,2.3-4.9,4.6-6.5,7.6c-2.9,1.2-4.9,3.1-5.2,6.4c-2,1.6-3.6,3.5-4.7,5.8c-2.8,1.2-4.9,2.9-5.2,6.2
		c-0.5,0.3-0.8,0.8-0.9,1.4c-2.9,1.3-4.7,3.5-5.3,6.7c-2.1,1.4-3.6,3.3-4.6,5.6c-1.9,0.8-3.2,2.1-3.3,4.3c-3.2,3.6-7,6.7-8.8,11.4
		c-2.8,1.3-4.7,3.4-5.3,6.6c-0.9,1.2-1.8,2.4-2.7,3.5c-1.9,0.9-3.1,2.3-3.3,4.4c-0.9,1.2-1.7,2.5-2.6,3.7c-4.9,2.8-7.5,7.2-9.3,12.3
		c-0.4,0.4-0.7,0.8-0.8,1.4c-1.9,0.9-3.2,2.3-3.3,4.5c-0.9,1.2-1.7,2.5-2.6,3.7c-1.9,0.9-3.2,2.2-3.4,4.4c-2.7,2.8-5,5.9-6.6,9.6
		c-2,0.8-3,2.2-3.1,4.4c-0.5,0.4-0.8,0.9-1,1.5c-4,2.4-6.6,5.8-7.3,10.5c-0.9,1.2-1.8,2.4-2.6,3.7c-3.6,2.6-6.1,5.9-6.9,10.4
		c-1.7,2.5-3.4,5.1-5.1,7.6c-3.6,2.6-6.1,6-6.9,10.4c-3,3.4-5.3,7.3-7.1,11.5c-1.8,1-3,2.4-3.2,4.5c-0.4,0.5-0.7,1-0.7,1.6
		c-6.1,5.7-10.2,12.6-12.8,20.4c-1.7,1.5-2.8,3.4-3.2,5.6c-3.3,1.8-4.9,4.7-5.2,8.4c-0.4,0.4-0.7,0.9-0.8,1.6
		c-2,0.8-2.9,2.3-2.7,4.5c-1.7,1.5-2.8,3.3-3.3,5.6c-6.1,6.5-10.4,14-13.2,22.4c-1.6,3.1-3.3,6.2-4.9,9.4c-2,0.9-2.8,2.5-2.6,4.7
		c-0.5,1-1,1.9-1.6,2.9c-1.7,1.3-2.9,2.8-3,5c-0.4,0.5-0.7,1-0.7,1.6c-1.8,0.9-3,2.2-2.6,4.4c-0.5,1.1-1,2.3-1.5,3.4
		c-4.9,4.5-7.3,10.4-9.1,16.6c-0.4,0.9-0.8,1.9-1.3,2.8C179.8,870.3,178.6,871.8,178.5,874.1z"/>
	<path class="st0" d="M1731.4,3197.1c-8.6,4.2-18,2.4-27,3.6c-4.2,0.6-8.6,0.1-12.8,0.3c-2.3,0.1-4.7,0.3-5.6,3c-16,0-32,0-48,0
		c1.4-4.2,4.9-4,8.2-3.9c19.2,0.1,38.4-3,57.7-2.2c5.2,0.2,10.5-1.4,15.8-1.7C1723.6,3195.9,1727.6,3195.3,1731.4,3197.1z"/>
	<path class="st0" d="M1522,3204c-2.2-4.3-6.2-3.1-9.6-3.1c-9.9,0.1-19.7-0.8-29.6-1.7c-2.3-0.2-4.6-0.1-6.4-2
		c4.8-2.2,9.9-1.7,14.7-0.7c6.6,1.4,13.2,1.8,19.9,1.4c16.7-1,33.1,2.9,49.8,2.1c3.1-0.2,6.1,0.3,7.2,3.9
		C1552.7,3204,1537.3,3204,1522,3204z"/>
	<path class="st0" d="M2,1502c1.5,0.1,3,0.2,4.6,0.3c2.1,3.4,1.9,7.2,1.2,10.7c-2.2,10.2-1.7,20.5-1.8,30.8
		c-0.1,3.3,0.3,6.9-3.9,8.2C2,1535.3,2,1518.7,2,1502z"/>
	<path class="st0" d="M6.7,1701.6c-1.6-0.4-3.2-0.4-4.7,0.4c0-16.7,0-33.3,0-50c2.5,0.8,3.8,2.6,3.8,5.2c0.2,13.3-0.1,26.5,2,39.7
		C8.1,1698.4,7.1,1700.1,6.7,1701.6z"/>
	<path class="st3" d="M1395.6,2353.8c-15,14.7-30.1,29.3-44.8,44.2c-37.7,38-97.9,42.2-140.5,13.3c-5.3-3.6-10-7.7-14.5-12.2
		c-221.7-221.7-443.5-443.4-665.2-665.2c-41.5-41.5-40.6-111.4,0.2-153.6c42.9-44.4,115.8-44.3,159.5,0
		c80,81.2,161,161.3,241.6,241.9c2.1,2.1,4.5,3.9,6.8,5.9c4.9,7.3,12.1,12.2,18.2,18.3c101.3,101.4,202.6,202.8,304,304.1
		c12.8,12.8,10.5,13.3,23.6,0.2c373.3-373.3,746.7-746.6,1119.9-1120c12.2-12.2,25.4-22.6,41.7-28.5c39.8-14.2,77-8.9,110.2,17.4
		c27.3,21.6,40.6,50.9,41,85.3c0.4,29.1-10,54.7-29.9,76.3c-2.7,2.9-5.6,5.7-8.5,8.5c-385.6,385.6-771.1,771.1-1156.7,1156.7
		C1399.9,2348.8,1397.8,2351.3,1395.6,2353.8z"/>
	<path class="st0" d="M189.9,2352c-3.9-2-4.7-6.3-6.5-9.7c-16.6-31.3-31.8-63.3-46.1-95.7c-0.9-2.1-2.4-4.1-1.5-6.6
		c8.3,10.3,11.6,23.1,17.2,34.7c10.6,22.2,21.2,44.4,32.9,66.1C187.8,2344.4,189.3,2348,189.9,2352z"/>
	<path class="st0" d="M127.5,2220.8c-4.9-5.3-6.4-12.3-8.9-18.7c-9.1-23-17.6-46.3-26.4-69.4c-0.6-1.6-1.2-3.1-0.7-4.8
		c3.2,1.9,3.8,5.2,4.9,8.4c8.5,24.4,17.9,48.4,27.8,72.2C125.8,2212.5,127.8,2216.4,127.5,2220.8z"/>
	<path class="st0" d="M444.3,500.1c0.6-3.2,3.1-5,5.1-7.1c15.2-15.2,30.3-30.4,45.6-45.5c2.1-2.1,3.9-4.6,7.2-4.9
		c-0.6,2.7-2.4,4.6-4.3,6.5c-15.4,15.4-30.8,30.8-46.2,46.2C449.5,497.4,447.4,499.6,444.3,500.1z"/>
	<path class="st0" d="M749.5,249.8c1.4-2.8,4.2-4.2,6.7-5.7c17.6-10.6,35.2-21.2,52.8-31.7c2.8-1.7,5.5-3.8,9.1-3.7
		c-2.7,5.1-8.1,6.7-12.6,9.3c-15.8,9.1-31.5,18.4-46.9,28.3C755.8,248,753.1,249.8,749.5,249.8z"/>
	<path class="st0" d="M2252.6,3064.5c-1.5,1.8-3.4,3.1-5.6,4c-20.7,8.6-41.4,17.2-62.2,25.8c-0.8,0.3-1.9,0-2.9,0
		c0.9-1.9,2.3-3.2,4.3-3.9c20.4-7,39.9-16,59.7-24.5C2248,3064.9,2250.2,3064.2,2252.6,3064.5z"/>
	<path class="st0" d="M1024,3094.2c-8.4-0.8-15.5-5.2-23.1-8.1c-13.2-5-26.1-10.9-39.2-16.5c-3-1.3-6.2-2.4-8.3-5.1
		c6.7-0.3,11.8,4,17.6,6.3c16.3,6.5,32.1,14.1,48.7,19.6C1021.7,3091,1023.1,3092.3,1024,3094.2z"/>
	<path class="st0" d="M117.7,1008.1c-0.2-6.6,3.4-11.9,5.8-17.6c5.1-12.5,10.6-24.9,16-37.3c1.6-3.6,2.7-7.5,6-10.1
		c0.4,6-3.5,10.6-5.5,15.7c-6.1,15.3-12.7,30.4-19.3,45.5C120.1,1005.7,118.7,1006.8,117.7,1008.1z"/>
	<path class="st0" d="M7.3,1482c-0.2-1-0.6-2-0.5-2.9c1-15.2,1.9-30.3,4.2-45.4c0.2-1.2,1.2-2.3,1.8-3.5c0.4,1.6,1.3,3.2,1.1,4.7
		c-2,14-3,28-3.9,42C9.8,1479.1,9,1480.9,7.3,1482z"/>
	<path class="st0" d="M12.7,1773.7c-0.4-0.5-1-1-1.2-1.6c-1.8-5.3-4.9-42-4.1-48.1c0.7,1,2,2,2.1,3.2c1.5,14.3,2.9,28.6,4.2,42.8
		C13.9,1771.2,13.1,1772.4,12.7,1773.7z"/>
	<path class="st0" d="M1791.5,3191.1c-0.2,0.2-0.4,0.6-0.7,0.7c-6.9,2.6-37,5.6-44.8,4.6c3.4-3.5,8.2-2.8,12.2-3.2
		C1769.3,3192.3,1780.3,3189.6,1791.5,3191.1z"/>
	<path class="st0" d="M1459.9,3196.3c-8.9,1.2-38.2-2.2-45.4-5.3c1.3-0.3,2.6-1.1,3.8-0.9c13,1.8,26.3,1.2,39.2,4.5
		C1458.4,3194.9,1459.2,3195.8,1459.9,3196.3z"/>
	<path class="st0" d="M2176.3,3096.3c-3.8,4.2-9.3,4.8-14.2,6.6c-9.3,3.4-18.1,8.3-28.1,9.3c0.7-1.5,1.8-3,3.4-3.4
		c11.7-3.1,22.7-8.1,34.1-12.1C2172.9,3096.2,2174.7,3096.4,2176.3,3096.3z"/>
	<path class="st0" d="M18.7,1823.7c-0.7-1.1-1.7-2.2-1.9-3.4c-1.9-11.4-3.9-22.7-3.5-34.3c4.2,3,2.8,7.8,3.4,11.8
		C17.9,1806.3,20,1814.9,18.7,1823.7z"/>
	<path class="st0" d="M78.6,2087.7c-0.7-0.7-1.9-1.2-2.1-2c-3.1-11.3-8.3-21.9-9.3-33.8c0.3,0.2,0.7,0.3,0.8,0.6
		C73.2,2063.7,77.7,2075.2,78.6,2087.7z"/>
	<path class="st0" d="M1405.9,3190.5c-12.7-0.1-25.4-0.4-37.4-5.4C1381.2,3185.6,1394,3185.2,1405.9,3190.5z"/>
	<path class="st0" d="M1837.5,3185c-0.2,0.2-0.4,0.6-0.7,0.7c-11.3,3.4-22.9,5-34.7,4.7c1.1-0.7,2-1.9,3.2-2.2
		C1815.8,3185.7,1826.6,3185.1,1837.5,3185z"/>
	<path class="st0" d="M13.4,1418.1c-0.9-8.4,2.1-29.4,5.1-35.9C18.3,1394.4,18.8,1406.6,13.4,1418.1z"/>
	<path class="st0" d="M902,3040.5c-11.7-3.4-22.4-8.9-32.1-16.3c2.8-0.3,5.2,0.5,7.4,2.1C885.1,3031.8,895,3033.6,902,3040.5z"/>
	<path class="st0" d="M2093.7,3125.4c-10.4,6-21.8,9-33.6,10.8c1.2-1.7,2.8-3,4.7-3.3C2074.6,3131.3,2083.3,3125.3,2093.7,3125.4z"
		/>
	<path class="st0" d="M90.6,2123.7c-5.9-6.6-6.2-15.5-9.4-23.2c-1-2.6-2.4-5.4-1.7-8.5c0.3,0.2,0.7,0.3,0.8,0.6
		C85.8,2102.2,89,2112.7,90.6,2123.7z"/>
	<path class="st0" d="M1875.5,3179c-10,4.8-20.6,5.6-31.4,5.5c1.2-1.8,3.1-2.3,5.1-2.7C1857.9,3180.1,1866.6,3178.6,1875.5,3179z"/>
	<path class="st0" d="M24.8,1863.6c-5-10-4.7-20.9-5.6-31.7c0.7,0.7,1.8,1.3,1.9,2.1C23.2,1843.8,25.9,1853.5,24.8,1863.6z"/>
	<path class="st0" d="M447.9,2708c-8.7-5.7-15.6-13.1-20.9-22C435.5,2691.9,443.4,2698.3,447.9,2708z"/>
	<path class="st0" d="M19.3,1372c0.7-10.1,0.4-20.4,5.3-29.8C24.7,1352.5,24.4,1362.7,19.3,1372z"/>
	<path class="st0" d="M2402.1,2988.2c-7.7,6.7-16.4,11.7-26.2,14.9C2383.6,2996.2,2391.9,2990.5,2402.1,2988.2z"/>
	<path class="st0" d="M1359.9,3184.3c-9.4-0.5-18.9-0.3-27.5-5.1C1341.9,3179.4,1351.4,3179.2,1359.9,3184.3z"/>
	<path class="st0" d="M1090,3118.3c-9.9-1.9-19.5-4.7-28.2-10C1072.1,3109,1081.5,3112.5,1090,3118.3z"/>
	<path class="st0" d="M518,2777.3c-8.1-4.8-14.9-11.2-20-19.1C507,2762.1,513,2769.1,518,2777.3z"/>
	<path class="st0" d="M637.3,327.7c6.3-7.5,14-13.1,22.9-17.1C654.3,318.7,646.5,324.2,637.3,327.7z"/>
	<path class="st0" d="M1907.5,3173.1c-7.9,4.7-16.6,5.1-25.5,5.3C1889.9,3173.6,1898.7,3173.3,1907.5,3173.1z"/>
	<path class="st0" d="M25.3,1334.1c0.5-8.9,0.7-17.8,5.2-25.9C30.7,1317.2,30.5,1326.2,25.3,1334.1z"/>
	<path class="st0" d="M85.6,1094.1c1.7-10.1,5-19.6,10.2-28.5C94.1,1075.7,92,1085.7,85.6,1094.1z"/>
	<path class="st0" d="M1323.9,3178.3c-8.8-0.1-17.5-0.8-25.4-5.3C1307.5,3172.5,1316,3174.1,1323.9,3178.3z"/>
	<path class="st0" d="M30.8,1897.6c-5.4-7.8-3.9-17-5.3-25.7C30.5,1879.9,30.5,1888.8,30.8,1897.6z"/>
	<path class="st0" d="M103.4,1044.1c1.9-9.4,4.9-18.5,10.4-26.5C112,1027.1,109.7,1036.4,103.4,1044.1z"/>
	<path class="st0" d="M36.7,1927.7c-5.2-7.1-4.2-15.7-5.4-23.7C36.1,1911.2,37.2,1919.3,36.7,1927.7z"/>
	<path class="st0" d="M1937.5,3167.1c-7.2,4.4-15.2,5.3-23.5,5.3C1921.3,3168.1,1929.3,3167,1937.5,3167.1z"/>
	<path class="st0" d="M208.7,818.1c2.7-8.4,7-16,13.2-22.4C219.7,804.5,215.3,811.9,208.7,818.1z"/>
	<path class="st0" d="M48.8,1981.6c-5-6.4-4.7-14.2-5.7-21.7C48.8,1966.2,48.8,1973.9,48.8,1981.6z"/>
	<path class="st0" d="M42.7,1955.7c-5.4-6.3-4-14.4-5.4-21.7C42.7,1940.3,42.9,1947.9,42.7,1955.7z"/>
	<path class="st0" d="M31.4,1300.1c0.8-8.2,0.5-16.5,5.4-23.8C37.2,1284.7,36.1,1292.8,31.4,1300.1z"/>
	<path class="st0" d="M727.7,263.9c5.6-6.4,12.8-10.2,20.5-13.3C743.4,258.2,735.7,261.3,727.7,263.9z"/>
	<path class="st0" d="M1291.9,3172.4c-7.4-0.7-15.1-0.4-21.6-5C1277.8,3167.9,1285.6,3167,1291.9,3172.4z"/>
	<path class="st0" d="M1263.9,3166.4c-7.9-0.8-16.1-0.3-22.7-5.9C1248.9,3162.3,1257.4,3160.6,1263.9,3166.4z"/>
	<path class="st0" d="M2702.1,2764.1c-4.3,6.3-9.1,12-16.2,15.3C2689.6,2772.4,2694.5,2766.8,2702.1,2764.1z"/>
	<path class="st0" d="M237.1,770.2c2.6-7.8,6.7-14.8,12.8-20.4C247.5,757.8,243.8,764.9,237.1,770.2z"/>
	<path class="st0" d="M2779.3,2685.9c-3.1,7.2-9,11.9-15.1,16.3C2766.6,2694.4,2772.5,2689.7,2779.3,2685.9z"/>
	<path class="st0" d="M819.6,207.9c5.8-5.6,12.7-9.4,20.5-11.4C834.9,203.3,827.3,205.7,819.6,207.9z"/>
	<path class="st0" d="M950,3063c-8.1-2.2-16-5-22.6-10.5C935.6,3054.5,943.7,3056.7,950,3063z"/>
	<path class="st0" d="M1963.6,3161.3c-5.9,4-12.7,4.7-19.6,4.9C1949.6,3160.8,1956.6,3161.2,1963.6,3161.3z"/>
	<path class="st0" d="M683.6,293.9c5.2-5.7,11.2-10.5,18.6-13C697.6,287.5,691.7,292.2,683.6,293.9z"/>
	<path class="st0" d="M54.8,2005.6c-4.8-5.7-4.7-12.8-5.4-19.7C54,1991.7,55.4,1998.4,54.8,2005.6z"/>
	<path class="st0" d="M1990.7,3154.6c-6.1,4.7-13.3,5.4-20.7,5.7C1976.2,3155.8,1983.3,3154.7,1990.7,3154.6z"/>
	<path class="st0" d="M60.7,2027.7c-4.5-5.1-4.7-11.5-5.4-17.7C60.5,2014.8,61.6,2020.9,60.7,2027.7z"/>
	<path class="st0" d="M820,2997.3c-7.1-2.1-13.6-5.3-18.7-10.8C808.6,2988.3,815.1,2991.3,820,2997.3z"/>
	<path class="st0" d="M762,2963.1c-6.9-2-12.6-5.8-17.4-11C751.8,2953.3,757.4,2957.4,762,2963.1z"/>
	<path class="st0" d="M37.4,1270.1c0.9-6.8,0.3-14,5.1-19.9C42.9,1257.4,41.6,1264.1,37.4,1270.1z"/>
	<path class="st0" d="M2799.3,2663.9c-2.8,6.3-7.5,10.7-13.1,14.4C2788,2671.1,2793.2,2667.1,2799.3,2663.9z"/>
	<path class="st0" d="M43.2,1244.1c0.8-6.9,0.7-14,5.3-19.9C48.9,1231.4,47.6,1238.1,43.2,1244.1z"/>
	<path class="st0" d="M2011.7,3149.4c-5.2,3.9-11.2,5.2-17.6,4.9C1999.3,3150.4,2005.2,3148.9,2011.7,3149.4z"/>
	<path class="st0" d="M2300.4,3042.3c-5,5.2-11.9,6.8-18.4,9C2286.7,3045.4,2293.2,3043.1,2300.4,3042.3z"/>
	<path class="st0" d="M1235.9,3160.2c-6.1-0.7-12.5-0.4-17.5-4.9C1224.6,3155.7,1231,3155,1235.9,3160.2z"/>
	<path class="st0" d="M1167.9,3142.5c-6.4-0.1-12.3-1.5-17.4-5.4C1157.2,3136.1,1162.8,3138.6,1167.9,3142.5z"/>
	<path class="st0" d="M2056.8,3136.6c-5.4,4.6-11.9,5.8-18.7,5.9C2043.4,3137.8,2050.2,3137.4,2056.8,3136.6z"/>
	<path class="st0" d="M1189.9,3148.4c-6.4,0.2-12.4-1.1-17.6-5.2C1178.7,3143.3,1184.8,3144.1,1189.9,3148.4z"/>
	<path class="st0" d="M1212,3154.3c-6.1-0.9-12.5-0.4-17.6-5C1200.6,3149.8,1207.2,3148.9,1212,3154.3z"/>
	<path class="st0" d="M2370.2,3006.2c-4.5,4.7-10,7.5-16.2,8.9C2358.2,3010,2363.4,3006.6,2370.2,3006.2z"/>
	<path class="st0" d="M1127.9,3130.5c-5.7-0.1-11.1-1.2-15.6-5.2C1118.2,3125.1,1123.8,3125.6,1127.9,3130.5z"/>
	<path class="st0" d="M49.4,1218.1c1.1-6.1,0.5-12.8,5.1-17.9C54.8,1206.7,54,1213,49.4,1218.1z"/>
	<path class="st0" d="M182.7,866.1c1.7-6.2,4.1-12.1,9.1-16.6C190.4,855.9,188.5,862.1,182.7,866.1z"/>
	<path class="st0" d="M422.4,524.2c2-5.8,6.6-9.4,11.4-12.8C432.8,518.2,428.1,521.7,422.4,524.2z"/>
	<path class="st0" d="M384.8,566.2c1.9-5.8,6.2-9.4,11.1-12.4C394.5,560,390.2,563.5,384.8,566.2z"/>
	<path class="st0" d="M151.1,930.1c1.2-6.5,3.9-12.1,8.4-16.9C158.8,919.8,156.3,925.6,151.1,930.1z"/>
	<path class="st0" d="M2678.2,2786.1c-2.7,5.2-6.8,8.9-12.2,11.3C2668.3,2791.8,2671.9,2787.5,2678.2,2786.1z"/>
	<path class="st0" d="M2033.7,3143.4c-4.5,4-10,4.5-15.6,4.9C2022.3,3143.7,2027.8,3143,2033.7,3143.4z"/>
	<path class="st0" d="M66.5,2047.7c-4.2-4.5-4.5-10.2-5.1-15.8C66.4,2036.2,67,2041.8,66.5,2047.7z"/>
	<path class="st0" d="M67.4,1152.1c0.5-5.7,1-11.4,5.2-15.9C73.4,1142.4,71.1,1147.4,67.4,1152.1z"/>
	<path class="st0" d="M73.3,1132.1c0.6-5.7,1.3-11.3,5.4-15.8C79.3,1122.4,77.2,1127.5,73.3,1132.1z"/>
	<path class="st0" d="M61.5,1172.1c0.6-5.6,0.8-11.4,5.1-15.8C67.4,1162.3,65.1,1167.4,61.5,1172.1z"/>
	<path class="st0" d="M55.5,1194.1c0.7-5.6,0.6-11.4,5-15.9C61.5,1184.3,59.1,1189.4,55.5,1194.1z"/>
	<path class="st0" d="M209.8,2388.2c-4.1-4-7.3-8.4-7.9-14.3C206.8,2377.4,208.8,2382.6,209.8,2388.2z"/>
	<path class="st0" d="M2111.7,3119.5c-3.6,4.3-8.7,4.4-13.7,4.9C2101.7,3120.3,2106.3,3118.7,2111.7,3119.5z"/>
	<path class="st0" d="M2492.1,2932.1c-3.7,4.7-8.4,7.7-14.1,9.3C2481.2,2935.9,2486.1,2933.3,2492.1,2932.1z"/>
	<path class="st0" d="M2464.3,2950.3c-3.9,4.5-8.6,7.6-14.3,9.1C2453.2,2954,2458.2,2951.1,2464.3,2950.3z"/>
	<path class="st0" d="M1108,3124.3c-5-0.3-9.9-1.1-13.6-5C1099.7,3118.8,1104.3,3120.2,1108,3124.3z"/>
	<path class="st0" d="M2506.4,2922.3c-3.1,4.4-7.2,7.4-12.5,8.6C2496.6,2925.8,2500.9,2923.2,2506.4,2922.3z"/>
	<path class="st0" d="M2129.6,3113.3c-3.7,3.8-8.5,4.8-13.6,5.1C2119.7,3114.3,2124.3,3112.8,2129.6,3113.3z"/>
	<path class="st0" d="M79.6,1112.1c0.4-5.1,1.2-10,5-13.9C85.3,1103.7,83.7,1108.4,79.6,1112.1z"/>
	<path class="st0" d="M310.6,660.1c1.8-5.1,4.4-9.6,9.3-12.3C318.4,653.1,316.2,657.9,310.6,660.1z"/>
	<path class="st0" d="M2658.2,2804.2c-2.3,4.3-5.4,7.7-10.3,8.9C2649.9,2808.4,2652.8,2804.9,2658.2,2804.2z"/>
	<path class="st0" d="M2825.2,2633.9c-1.2,5-4.7,8-9,10.4C2816.9,2638.8,2820.5,2635.9,2825.2,2633.9z"/>
	<path class="st0" d="M553.7,395.9c2.4-4.4,5.6-7.9,10.5-9.5C562.4,391.5,559.3,395,553.7,395.9z"/>
	<path class="st0" d="M537.6,409.9c2.5-4.3,5.4-8,10.6-9.2C546.2,405.5,543.2,409.2,537.6,409.9z"/>
	<path class="st0" d="M513.6,431.8c2.7-4.1,5.4-8.1,10.5-9.5C522.4,427.5,519.3,431.2,513.6,431.8z"/>
	<path class="st0" d="M197.7,2366.3c-4-3.1-5.9-7.5-6.9-12.3C195.6,2356.7,197,2361.4,197.7,2366.3z"/>
	<path class="st0" d="M2278.8,3052.5c-3.5,3.6-7.7,5.8-12.8,6.1C2269.3,3054.5,2273.6,3052.6,2278.8,3052.5z"/>
	<path class="st0" d="M1146,3136.3c-4.5-0.1-8.7-0.9-12.2-4C1138.4,3131.9,1142.8,3132.2,1146,3136.3z"/>
	<path class="st0" d="M709.7,275.9c2.6-3.8,5.9-6.3,10.5-7.1C718.4,273.8,714.3,275.3,709.7,275.9z"/>
	<path class="st0" d="M727.9,2941.4c-4.3-1.1-8-3-10.3-7.1C722.3,2934.9,725.9,2937,727.9,2941.4z"/>
	<path class="st0" d="M259.7,2470.3c-4-2.3-6-6-6.9-10.3C256.9,2462.2,259.2,2465.7,259.7,2470.3z"/>
	<path class="st0" d="M709.9,2929.4c-4.3-1.1-8-3-10.1-7.2C704.3,2923,707.9,2925.1,709.9,2929.4z"/>
	<path class="st0" d="M844,3010.6c-4.7,0-7.9-2.6-10.7-6C838.1,3004.3,841.2,3007.1,844,3010.6z"/>
	<path class="st0" d="M260.9,732.1c0.8-4.5,3.3-7.8,6.9-10.4C267.3,726.3,265.8,730.3,260.9,732.1z"/>
	<path class="st0" d="M866,3022.4c-4.7,0-7.7-2.9-10.7-5.9C860,3016.5,863.8,3018.1,866,3022.4z"/>
	<path class="st0" d="M272.9,714.1c0.8-4.4,3.3-7.8,6.9-10.4C279.3,708.3,277.8,712.4,272.9,714.1z"/>
	<path class="st0" d="M2532.2,2904.2c-2.1,4.2-5.8,6.3-10.2,7.3C2524,2907.1,2527.7,2905,2532.2,2904.2z"/>
	<path class="st0" d="M282.5,700.1c0.7-4.7,3.3-8.1,7.3-10.5C289.1,694.3,286.8,697.9,282.5,700.1z"/>
	<path class="st0" d="M2350.8,3016.5c-2.9,3.2-6.3,5.7-10.8,5.9C2342.2,3018,2346,3016.4,2350.8,3016.5z"/>
	<path class="st0" d="M327.9,2567.8c-4.1-2.1-6-5.8-7.5-9.9C325.6,2559.3,327,2563.4,327.9,2567.8z"/>
	<path class="st0" d="M1040,3100.3c-4,0.1-7.4-0.9-10.1-4.1C1033.9,3096,1037.5,3096.8,1040,3100.3z"/>
	<path class="st0" d="M1056,3106.3c-4,0.2-7.5-0.9-10.2-4C1049.8,3102,1053.4,3102.8,1056,3106.3z"/>
	<path class="st0" d="M2845,2609.9c-0.4,4.3-3.4,6.5-6.8,8.4C2838.4,2613.8,2841.1,2611.4,2845,2609.9z"/>
	<path class="st0" d="M2835.4,2621.9c-1.1,3.9-3.6,6.6-7.2,8.3C2828.5,2625.7,2831.1,2623.1,2835.4,2621.9z"/>
	<path class="st0" d="M2642.1,2818.1c-1.7,3.6-4.1,6.4-8.3,7.2C2635.2,2821.3,2637.7,2818.6,2642.1,2818.1z"/>
	<path class="st0" d="M402.4,546.1c0.8-4.3,3.9-6.6,7.4-8.5C409.5,542.3,406.8,544.9,402.4,546.1z"/>
	<path class="st0" d="M2811.4,2650c-0.7,4.3-3.8,6.5-7.2,8.5C2804.4,2653.7,2807.1,2651.2,2811.4,2650z"/>
	<path class="st0" d="M567.5,383.8c2-3.6,4.5-6.4,8.7-7.3C574.8,380.8,572.3,383.6,567.5,383.8z"/>
	<path class="st0" d="M2598.3,2854.2c-1.9,3.4-4.3,6.2-8.4,6.8C2591.3,2857,2593.9,2854.5,2598.3,2854.2z"/>
	<path class="st0" d="M572,2824.8c-4.2-0.4-6.2-3.4-7.9-6.7C568.2,2818.6,570.7,2821.1,572,2824.8z"/>
	<path class="st0" d="M2853.4,2599.9c-0.8,4.1-3.6,6.6-7.1,8.5C2846.5,2603.8,2849.1,2601.2,2853.4,2599.9z"/>
	<path class="st0" d="M558.2,2813.2c-4.1-0.8-6.3-3.6-8-7.1C554.4,2806.7,556.8,2809.3,558.2,2813.2z"/>
	<path class="st0" d="M591.6,363.9c1.8-3.6,4.4-6.3,8.5-7.3C598.9,360.8,596.2,363.5,591.6,363.9z"/>
	<path class="st0" d="M97.4,1060.1c0.1-4.1,1-7.8,4.3-10.6C102,1053.7,101.3,1057.5,97.4,1060.1z"/>
	<path class="st0" d="M2324.4,3030.3c-2.1,2.8-4.7,4.6-8.4,4.3C2317.5,3030.7,2320.6,3029.9,2324.4,3030.3z"/>
	<path class="st0" d="M2312.4,3036.3c-2.1,2.8-4.7,4.6-8.4,4.3C2305.5,3036.7,2308.6,3035.9,2312.4,3036.3z"/>
	<path class="st0" d="M2336.4,3024.3c-2.1,2.8-4.7,4.6-8.4,4.3C2329.5,3024.7,2332.6,3023.9,2336.4,3024.3z"/>
	<path class="st0" d="M914,3046.4c-3.6,0.3-6.2-1.3-8.1-4.2C909.5,3041.9,912.5,3042.7,914,3046.4z"/>
	<path class="st0" d="M237.9,2436c-3.3-1.7-4.5-4.6-5-8C236.5,2429.5,237.5,2432.5,237.9,2436z"/>
	<path class="st0" d="M217.8,2402.2c-3-1.9-4.8-4.6-4.8-8.2C216.5,2395.6,217.5,2398.7,217.8,2402.2z"/>
	<path class="st0" d="M830,3002.8c-3.6,0.1-6.3-1.7-8.3-4.5C825.2,2998.4,828.2,2999.5,830,3002.8z"/>
	<path class="st0" d="M133.5,2234.9c-2.2-2.5-4.6-5-3.7-8.9C132.6,2228.3,133.9,2231.2,133.5,2234.9z"/>
	<path class="st0" d="M228.7,784.1c0.3-3.7,1.9-6.5,5.2-8.4C233.5,779.4,232.4,782.6,228.7,784.1z"/>
	<path class="st0" d="M2588.3,2862.2c-1.3,2.7-3.1,4.8-6.4,4.9C2582.8,2863.9,2585,2862.2,2588.3,2862.2z"/>
	<path class="st0" d="M2580.3,2868.2c-1.3,2.7-3.1,4.8-6.4,5.2C2574.7,2870,2576.9,2868.3,2580.3,2868.2z"/>
	<path class="st0" d="M2572.5,2874.3c-1.5,2.7-3.5,4.6-6.7,5C2566.8,2876,2568.9,2874.2,2572.5,2874.3z"/>
	<path class="st0" d="M648,2885.2c-3.2-0.2-5-2.3-6.4-4.8C645,2880.2,647.1,2881.9,648,2885.2z"/>
	<path class="st0" d="M2556.5,2886.3c-1.4,2.6-3.3,4.8-6.5,5.1C2550.8,2887.9,2552.9,2886.2,2556.5,2886.3z"/>
	<path class="st0" d="M664,2897.1c-3.2-0.1-5-2.2-6.4-4.8C661,2892.3,663.1,2893.8,664,2897.1z"/>
	<path class="st0" d="M2548.5,2892.3c-1.5,2.6-3.4,4.6-6.6,4.8C2542.9,2893.8,2545,2892.2,2548.5,2892.3z"/>
	<path class="st0" d="M672,2903c-3.1-0.2-4.9-2.2-6.2-4.8C669.1,2898.3,671.1,2899.8,672,2903z"/>
	<path class="st0" d="M2540.4,2898.3c-1.4,2.7-3.2,4.6-6.5,4.6C2534.9,2899.7,2537.1,2898.2,2540.4,2898.3z"/>
	<path class="st0" d="M686,2912.8c-3.3,0.1-4.9-2-6.3-4.5C683,2908.2,685,2909.8,686,2912.8z"/>
	<path class="st0" d="M337.6,2580.5c-2.6-1.4-4.6-3.3-4.9-6.5C336.1,2574.8,337.8,2577,337.6,2580.5z"/>
	<path class="st0" d="M669.7,303.9c1.3-2.8,3.2-4.9,6.5-5C675.2,302.1,673,303.8,669.7,303.9z"/>
	<path class="st0" d="M661.4,309.8c1.4-2.8,3.4-4.8,6.8-4.9C667.1,308.2,664.9,309.9,661.4,309.8z"/>
	<path class="st0" d="M629.3,333.7c1.5-2.8,3.6-4.8,6.8-5.1C635.2,332.1,633,333.9,629.3,333.7z"/>
	<path class="st0" d="M349.9,2596c-2.6-1.2-4.8-2.8-4.7-6.1C348.1,2590.9,349.7,2592.9,349.9,2596z"/>
	<path class="st0" d="M621.6,339.9c1.3-2.8,3.2-4.9,6.5-5.4C627.3,337.9,625.2,339.8,621.6,339.9z"/>
	<path class="st0" d="M613.7,345.9c1.3-2.8,3.2-4.8,6.5-4.9C619.2,344.1,617,345.8,613.7,345.9z"/>
	<path class="st0" d="M601.5,355.8c1.3-2.9,3.3-5,6.7-5.4C607.3,353.9,605.1,355.8,601.5,355.8z"/>
	<path class="st0" d="M581.6,371.8c1.3-2.9,3.3-4.8,6.6-5.3C587.3,370,585.1,371.8,581.6,371.8z"/>
	<path class="st0" d="M366.7,588.1c0.3-3.3,2.3-5.2,5.2-6.4C371.7,585.2,370,587.3,366.7,588.1z"/>
	<path class="st0" d="M350.5,608.2c0.6-3.2,2.4-5.4,5.3-6.7C355.8,605.2,353.9,607.3,350.5,608.2z"/>
	<path class="st0" d="M328.5,636.1c0.5-3.2,2.4-5.2,5.3-6.6C333.8,633.1,332,635.3,328.5,636.1z"/>
	<path class="st0" d="M378.4,574.1c0.6-3.2,2.5-5.2,5.4-6.5C383.8,571.2,381.9,573.3,378.4,574.1z"/>
	<path class="st0" d="M367.9,2617.9c-2.8-1.1-4.7-3-5.4-6C365.8,2612.6,367.6,2614.6,367.9,2617.9z"/>
	<path class="st0" d="M373.9,2625.9c-2.7-1.1-4.7-2.6-4.5-5.9C372.2,2620.9,373.7,2622.9,373.9,2625.9z"/>
	<path class="st0" d="M400,2655.8c-2.7-1-4.8-2.7-5.3-5.7C397.8,2650.6,399.6,2652.6,400,2655.8z"/>
	<path class="st0" d="M2861.2,2589.9c-0.4,3.1-2.2,5.1-5.1,6.2C2856.3,2592.8,2858,2590.7,2861.2,2589.9z"/>
	<path class="st0" d="M538,2795.4c-3.2-0.4-4.9-2.5-5.9-5.3C535.4,2790.4,537.4,2792.2,538,2795.4z"/>
	<path class="st0" d="M356.7,600.1c0.3-3.3,2.4-5.1,5.2-6.2C361.7,597.2,359.9,599.3,356.7,600.1z"/>
	<path class="st0" d="M584,2835.1c-3.1-0.3-4.8-2.3-5.9-5C581.3,2830.3,583.2,2832,584,2835.1z"/>
	<path class="st0" d="M594.1,2843.3c-3.1-0.5-4.9-2.4-6.1-5.2C591.3,2838.3,593.3,2840.2,594.1,2843.3z"/>
	<path class="st0" d="M2618.2,2838.2c-1.2,2.8-3,4.8-6.2,5C2612.8,2840,2614.8,2838.3,2618.2,2838.2z"/>
	<path class="st0" d="M616,2860.8c-3.2,0-4.9-1.9-6-4.7C613.1,2856.3,615.1,2857.8,616,2860.8z"/>
	<path class="st0" d="M624,2867.1c-3.1-0.3-4.8-2.3-6-5C621.2,2862.3,623.2,2864,624,2867.1z"/>
	<path class="st0" d="M283.7,2506.3c-2.4-1.5-4.7-3-4.4-6.4C282.3,2501,283.8,2503.1,283.7,2506.3z"/>
	<path class="st0" d="M924,3050.8c-2.5,0.3-4.8-0.1-6.1-2.6C920.4,3048,922.7,3048.2,924,3050.8z"/>
	<path class="st0" d="M2262.3,3060.2c-1.4,2.5-3.8,2.8-6.3,2.8C2257.2,3060.2,2259.6,3060,2262.3,3060.2z"/>
	<path class="st0" d="M788,2978.8c-2,0.2-3.5-0.7-4.3-2.5C785.7,2976.2,787.2,2976.9,788,2978.8z"/>
	<path class="st0" d="M2422.4,2976.3c-0.9,1.8-2.4,2.7-4.4,2.7C2418.8,2977,2420.3,2976.2,2422.4,2976.3z"/>
	<path class="st0" d="M798,2984.6c-2,0.3-3.4-0.5-4.2-2.3C795.7,2982.2,797.1,2982.8,798,2984.6z"/>
	<path class="st0" d="M2412.3,2982.2c-0.8,1.9-2.2,2.8-4.3,2.7C2408.8,2983,2410.3,2982.2,2412.3,2982.2z"/>
	<path class="st0" d="M178.5,874.1c0-2.2,1.3-3.8,2.9-5.1C181.8,871.4,181,873.2,178.5,874.1z"/>
	<path class="st0" d="M193.3,846.1c-0.4-2.2,0.8-3.5,2.6-4.4C195.9,843.7,195.1,845.2,193.3,846.1z"/>
	<path class="st0" d="M196.6,840.1c0.1-2.2,1.2-3.8,3-5C199.8,837.5,199,839.3,196.6,840.1z"/>
	<path class="st0" d="M201.1,832.1c-0.2-2.2,0.7-3.7,2.6-4.7C203.8,829.6,203.1,831.2,201.1,832.1z"/>
	<path class="st0" d="M225.1,790.1c-0.2-2.2,0.7-3.6,2.7-4.5C227.8,787.7,227,789.2,225.1,790.1z"/>
	<path class="st0" d="M852,3014.8c-2,0.2-3.5-0.6-4.5-2.4C849.5,3012.2,851.1,3012.9,852,3014.8z"/>
	<path class="st0" d="M250.6,748.1c0.2-2.1,1.4-3.5,3.2-4.5C253.8,745.8,252.8,747.4,250.6,748.1z"/>
	<path class="st0" d="M290.8,688.1c0-2.2,1.1-3.6,3.1-4.4C293.8,685.9,292.9,687.4,290.8,688.1z"/>
	<path class="st0" d="M300.5,674.2c0.2-2.2,1.5-3.6,3.4-4.4C303.8,672,302.7,673.5,300.5,674.2z"/>
	<path class="st0" d="M306.5,666.1c0.1-2.3,1.4-3.6,3.3-4.5C309.8,663.8,308.8,665.4,306.5,666.1z"/>
	<path class="st0" d="M322.5,644.1c0.2-2.2,1.4-3.6,3.3-4.4C325.8,641.9,324.8,643.5,322.5,644.1z"/>
	<path class="st0" d="M342.6,618.1c0.1-2.2,1.4-3.5,3.3-4.3C345.8,616,344.7,617.5,342.6,618.1z"/>
	<path class="st0" d="M677.8,297.9c0.8-2,2.3-3,4.4-3.2C681.4,296.9,679.9,297.8,677.8,297.9z"/>
	<path class="st0" d="M703.7,279.9c0.8-2,2.3-3.1,4.5-3.2C707.4,278.8,705.9,279.8,703.7,279.9z"/>
	<path class="st0" d="M721.6,267.9c0.9-2,2.4-3.1,4.6-3.2C725.4,266.9,723.8,267.8,721.6,267.9z"/>
	<path class="st0" d="M385.9,2640c-1.9-0.6-2.9-2-3.1-3.9C384.8,2636.6,385.8,2638,385.9,2640z"/>
	<path class="st0" d="M317.7,2554.3c-1.9-0.8-3-2.2-3-4.2C316.8,2550.7,317.7,2552.1,317.7,2554.3z"/>
	<path class="st0" d="M311.8,2546.1c-1.9-0.7-3-2-3-4.1C310.8,2542.7,311.7,2544.1,311.8,2546.1z"/>
	<path class="st0" d="M656,2891.1c-2.1,0-3.3-1.1-4-2.9C653.9,2888.2,655.3,2889.2,656,2891.1z"/>
	<path class="st0" d="M307.7,2540.3c-1.8-0.8-3-2.2-3.3-4.2C306.7,2536.6,307.7,2538.1,307.7,2540.3z"/>
	<path class="st0" d="M2630.1,2828.1c-0.7,2-2.1,3.2-4.2,3.5C2626.5,2829.5,2627.9,2828.3,2630.1,2828.1z"/>
	<path class="st0" d="M2606.1,2848.1c-0.7,1.9-2,3.2-4.1,3.4C2602.5,2849.4,2603.9,2848.3,2606.1,2848.1z"/>
	<path class="st0" d="M632,2873.1c-2.1,0-3.3-1.1-4-3C630,2870.3,631.4,2871.2,632,2873.1z"/>
	<path class="st0" d="M251.7,2458.3c-1.9-0.8-2.7-2.3-2.5-4.3C251.1,2454.8,251.8,2456.3,251.7,2458.3z"/>
	<path class="st0" d="M678,2907.2c-2-0.1-3.4-1.1-4.2-3C675.9,2904.3,677.4,2905.2,678,2907.2z"/>
	<path class="st0" d="M241.8,2442.3c-1.8-0.9-2.8-2.3-2.8-4.3C241,2438.7,241.8,2440.2,241.8,2442.3z"/>
	<path class="st0" d="M301.7,2532.3c-1.8-0.8-2.9-2.2-3.1-4.3C300.8,2528.6,301.7,2530.1,301.7,2532.3z"/>
	<path class="st0" d="M343.8,2588.1c-1.9-0.7-3.1-2-3.4-4.1C342.6,2584.5,343.7,2586,343.8,2588.1z"/>
	<path class="st0" d="M2518.2,2914.2c-0.9,1.8-2.2,3-4.3,3C2514.6,2915.1,2516.1,2914.2,2518.2,2914.2z"/>
	<path class="st0" d="M698,2920.9c-2.1,0.2-3.3-0.9-4.1-2.7C695.8,2918.2,697.3,2919,698,2920.9z"/>
	<path class="st0" d="M229.7,2422.3c-1.7-0.9-2.8-2.3-2.8-4.3C229,2418.7,229.8,2420.2,229.7,2422.3z"/>
	<path class="st0" d="M223.7,2412.4c-1.8-0.9-2.7-2.4-2.7-4.4C223,2408.8,223.8,2410.3,223.7,2412.4z"/>
	<path class="st0" d="M147.7,938.1c-0.7-2.1,0.1-3.6,2.1-4.5C149.9,935.5,149.3,937,147.7,938.1z"/>
	<path class="st0" d="M160.5,910.1c0-2.2,1.3-3.8,2.9-5.1C163.8,907.4,163,909.2,160.5,910.1z"/>
	<path class="st0" d="M740,2949.1c-2,0-3.5-0.9-4.3-2.8C737.7,2946.3,739.3,2947,740,2949.1z"/>
	<path class="st0" d="M2470.4,2946.3c-0.9,1.9-2.4,2.9-4.4,3C2466.7,2947.1,2468.2,2946.3,2470.4,2946.3z"/>
	<path class="st0" d="M166.5,898.1c0-2.2,1.3-3.8,2.9-5.1C169.8,895.4,169,897.2,166.5,898.1z"/>
	<path class="st0" d="M172.5,886.1c0-2.2,1.3-3.8,2.9-5.1C175.8,883.4,175,885.2,172.5,886.1z"/>
	<path class="st0" d="M2448.3,2960.2c-0.8,1.9-2.2,2.9-4.3,2.8C2444.8,2961,2446.3,2960.2,2448.3,2960.2z"/>
	<path class="st0" d="M768,2966.6c-2,0.2-3.4-0.5-4.2-2.3C765.7,2964.2,767.1,2964.8,768,2966.6z"/>
	<path class="st0" d="M2442.1,2964.2c-0.7,1.9-2.1,2.9-4.2,2.8C2438.7,2965,2440.2,2964.2,2442.1,2964.2z"/>
	<path class="st0" d="M2562.2,2882.2c-0.8,1.9-2.1,3.1-4.2,3.1C2558.6,2883.2,2560.1,2882.3,2562.2,2882.2z"/>
	<path class="st0" d="M357.9,2605.9c-1.9-0.6-3.1-1.8-3.1-3.9C356.8,2602.6,357.7,2603.9,357.9,2605.9z"/>
	<path class="st0" d="M295.8,2524.1c-1.8-0.7-2.8-2.1-2.8-4.1C295,2520.7,295.8,2522.1,295.8,2524.1z"/>
	<path class="st0" d="M291.9,2518c-1.8-0.7-3-2-3.1-4C290.8,2514.6,291.7,2516,291.9,2518z"/>
	<path class="st0" d="M287.7,2512.3c-1.9-0.8-3-2.2-3-4.3C286.8,2508.7,287.7,2510.2,287.7,2512.3z"/>
	<path class="st0" d="M2432.3,2970.3c-0.8,1.9-2.3,2.8-4.4,2.8C2428.7,2971,2430.3,2970.2,2432.3,2970.3z"/>
	<path class="st0" d="M273.8,2492.1c-1.8-0.8-2.9-2-2.9-4.1C272.9,2488.7,273.8,2490.1,273.8,2492.1z"/>
	<path class="st0" d="M269.9,2486.1c-1.9-0.7-2.9-2-2.8-4.1C268.9,2482.7,269.8,2484.1,269.9,2486.1z"/>
	<path class="st0" d="M263.7,2476.4c-1.9-0.8-2.9-2.3-3-4.4C262.9,2472.7,263.7,2474.2,263.7,2476.4z"/>
	<path class="st0" d="M778,2972.9c-2,0-3.4-0.8-4.1-2.7C775.8,2970.2,777.3,2971,778,2972.9z"/>
</g>
</svg>
